<svg width="88" height="89" viewBox="0 0 88 89" fill="none" xmlns="http://www.w3.org/2000/svg">
<path d="M44 5.79883C19.6969 5.79883 0 21.8004 0 41.5488C0 50.0738 3.67813 57.877 9.79688 64.0129C7.64844 72.6754 0.464063 80.3926 0.378125 80.4785C0 80.8738 -0.103125 81.4582 0.120312 81.9738C0.34375 82.4895 0.825 82.7988 1.375 82.7988C12.7703 82.7988 21.3125 77.3332 25.5406 73.9645C31.1609 76.0785 37.4 77.2988 44 77.2988C68.3031 77.2988 88 61.2973 88 41.5488C88 21.8004 68.3031 5.79883 44 5.79883ZM22 47.0488C18.9578 47.0488 16.5 44.591 16.5 41.5488C16.5 38.5066 18.9578 36.0488 22 36.0488C25.0422 36.0488 27.5 38.5066 27.5 41.5488C27.5 44.591 25.0422 47.0488 22 47.0488ZM44 47.0488C40.9578 47.0488 38.5 44.591 38.5 41.5488C38.5 38.5066 40.9578 36.0488 44 36.0488C47.0422 36.0488 49.5 38.5066 49.5 41.5488C49.5 44.591 47.0422 47.0488 44 47.0488ZM66 47.0488C62.9578 47.0488 60.5 44.591 60.5 41.5488C60.5 38.5066 62.9578 36.0488 66 36.0488C69.0422 36.0488 71.5 38.5066 71.5 41.5488C71.5 44.591 69.0422 47.0488 66 47.0488Z" fill="white"/>
</svg>
