<svg width="117" height="107" viewBox="0 0 117 107" fill="none" xmlns="http://www.w3.org/2000/svg">
<g id="Group">
<path id="Vector" d="M25.7729 28.8464C23.6273 28.8464 21.8398 30.634 21.8398 32.7795C21.8398 34.925 23.6274 36.7126 25.7729 36.7126C27.9185 36.7126 29.706 34.925 29.706 32.7795C29.706 30.634 27.9184 28.8464 25.7729 28.8464Z" fill="#FBFBFC"/>
<path id="Vector_2" d="M54.5508 36.5314H62.4161V28.6661H54.5508V36.5314Z" fill="#FBFBFC"/>
<path id="Vector_3" d="M91.2006 28.8464C89.055 28.8464 87.2676 30.634 87.2676 32.7795C87.2676 34.925 89.0551 36.7126 91.2006 36.7126C93.3462 36.7126 95.1336 34.925 95.1336 32.7795C95.1328 30.6339 93.3453 28.8464 91.2006 28.8464Z" fill="#FBFBFC"/>
<path id="Vector_4" d="M58.4852 10.075C26.4863 -19.421 -20.349 28.1305 11.2917 59.7714L57.2337 105.713C57.5909 106.071 57.9489 106.25 58.4846 106.25C59.0212 106.25 59.3784 106.071 59.7356 105.713L105.678 59.7714C113.007 52.4419 116.225 44.0399 116.225 35.9956C116.225 10.075 83.1537 -12.6285 58.4845 10.075H58.4852ZM91.1982 40.1081C87.6231 40.1081 84.7625 37.6054 83.8687 34.3876H65.9925V38.3207C65.9925 39.393 65.2773 40.1082 64.205 40.1082H61.5236L73.6791 64.4192C74.0362 65.1344 73.8577 66.0281 73.3219 66.5648C72.7853 67.1014 71.8915 67.1014 71.1763 66.7434L65.2771 62.9898V69.2461C65.2771 70.3185 64.5619 71.0337 63.4895 71.0337H53.6573C52.5849 71.0337 51.8698 70.3185 51.8698 69.2461V62.9898L45.9706 66.7434C45.2554 67.1006 44.3616 67.1006 43.825 66.5648C43.2884 66.0282 43.1098 65.1344 43.4678 64.4192L55.6233 40.1082H52.9419C51.8695 40.1082 51.1543 39.3931 51.1543 38.3207V34.3876H32.921C32.0272 37.6054 29.1674 40.1081 25.5915 40.1081C21.4797 40.1081 18.0833 36.7117 18.0833 32.6C18.0833 28.4882 21.4797 25.0918 25.5915 25.0918C29.1666 25.0918 32.0273 27.5945 32.921 30.8123H50.9757V26.8792C50.9757 25.8069 51.6908 25.0917 52.7632 25.0917H64.2045C65.2768 25.0917 65.992 25.8068 65.992 26.8792V30.8123H84.0467C84.9404 27.5945 87.8002 25.0918 91.3762 25.0918C95.4879 25.0918 98.8844 28.4882 98.8844 32.6C98.7058 36.8901 95.3093 40.1081 91.1977 40.1081H91.1982Z" fill="#FBFBFC"/>
</g>
</svg>
