<svg width="125" height="107" viewBox="0 0 125 107" fill="none" xmlns="http://www.w3.org/2000/svg">
<g id="Group">
<path id="Vector" d="M40.4202 41.7713L20.7461 92.1759C20.1713 93.4683 20.6024 94.9042 21.4646 95.9101L23.9056 98.3512L58.8015 63.4553C57.2217 60.727 57.5091 57.1363 59.9501 54.8393C62.6784 52.111 67.2737 52.111 70.0022 54.8393C72.7305 57.5675 72.7305 62.1629 70.0022 64.8914C67.705 67.1887 64.1145 67.6197 61.3862 66.04L26.4904 101.08L28.9314 103.521C29.9363 104.526 31.3725 104.813 32.6656 104.239L83.0726 84.4213C87.237 82.8416 90.3962 79.5385 91.6886 75.2303L100.88 47.8014C101.598 45.6469 101.023 43.206 99.4436 41.6261L83.3599 25.5425C81.7802 23.9628 79.3393 23.388 77.1847 24.1065L49.612 33.1537C45.4476 34.5897 42.1446 37.7491 40.421 41.7707L40.4202 41.7713Z" fill="#FBFBFC"/>
<path id="Vector_2" d="M89.1031 1.27357L123.568 35.7382C124.429 36.5995 124.429 37.8927 123.568 38.6102L116.244 45.9339C114.233 47.9447 111.074 47.9447 109.208 45.9339L78.9065 15.7764C76.8957 13.7656 76.8957 10.6061 78.9065 8.73998L86.2302 1.41633C87.0914 0.554143 88.3837 0.554143 89.1022 1.27168L89.1031 1.27357Z" fill="#FBFBFC"/>
<path id="Vector_3" d="M20.46 106.25C20.0289 106.25 10.838 106.106 6.09892 98.4948C1.50453 91.1712 2.79668 79.6829 10.1206 64.3177C13.9975 56.1316 12.4178 49.239 9.68949 45.6485C7.53498 42.9202 4.51918 41.6279 1.35995 42.0581L0.785156 38.6114C5.38052 37.8929 9.68866 39.6163 12.5607 43.4942C16.8688 49.0945 17.156 57.7115 13.2791 65.7528C6.67296 79.6829 5.23683 90.3095 9.11474 96.4852C12.8489 102.373 20.46 102.517 20.46 102.517L20.46 106.25Z" fill="#FBFBFC"/>
</g>
</svg>
