<svg width="95" height="107" viewBox="0 0 95 107" fill="none" xmlns="http://www.w3.org/2000/svg">
<g id="Group">
<path id="Vector" d="M42.5642 42.9415L36.9102 52.7216L42.5642 49.1148V42.9415Z" fill="#FBFBFC"/>
<path id="Vector_2" d="M43.6016 60.373H51.4646L47.5331 57.8547L43.6016 60.373Z" fill="#FBFBFC"/>
<path id="Vector_3" d="M52.6035 42.9565V49.1781L58.3057 52.8341L52.6035 42.9565Z" fill="#FBFBFC"/>
<path id="Vector_4" d="M42.5642 23.463L19.1211 64.1097L30.4118 56.8805L42.5637 35.8587L42.5642 23.463Z" fill="#FBFBFC"/>
<path id="Vector_5" d="M23.5547 73.2082H37.3637V67.0349H33.204L23.5547 73.2082Z" fill="#FBFBFC"/>
<path id="Vector_6" d="M61.864 67.0349H56.2754V73.2082H71.5139L61.864 67.0349Z" fill="#FBFBFC"/>
<path id="Vector_7" d="M52.6035 35.8572L64.8037 56.9925L76.1107 64.2217L52.6037 23.478L52.6035 35.8572Z" fill="#FBFBFC"/>
<path id="Vector_8" d="M61.8292 58.9422L49.3525 50.95V12.1222H53.4468V0.749695H41.7177V12.1222H45.8111V50.8839L33.3835 58.8441L9.69795 74.0008H0.128906V85.3734H11.8579V76.8436L32.7334 63.4738L37.3642 60.501L37.5752 60.3709L47.5336 53.9866L62.3493 63.4739L83.1601 76.8117V85.3732H94.8729V74.0007H85.3528L61.8292 58.9422Z" fill="#FBFBFC"/>
<path id="Vector_9" d="M39.6384 98.6905V106.25H53.8531V98.9963L58.4348 88.2345L49.3049 72.4438H48.4411L48.4273 80.5988C49.0448 81.0699 49.435 81.8174 49.435 82.6459C49.435 84.1083 48.249 85.278 46.8029 85.278C45.3569 85.278 44.1709 84.1084 44.1709 82.6459C44.1709 81.8174 44.561 81.0699 45.1785 80.5988L45.1923 72.4438H44.3337L35.1875 88.2345L39.6384 98.6905Z" fill="#FBFBFC"/>
<path id="Vector_10" d="M40.6153 72.3967L42.4669 69.1963H51.1748L53.0264 72.3967V63.6243H40.6152L40.6153 72.3967Z" fill="#FBFBFC"/>
</g>
</svg>
