<svg width="21" height="20" viewBox="0 0 21 20" fill="none" xmlns="http://www.w3.org/2000/svg">
<path d="M15.9554 5V13.125C15.9554 13.2908 15.8896 13.4497 15.7724 13.5669C15.6552 13.6842 15.4962 13.75 15.3304 13.75C15.1647 13.75 15.0057 13.6842 14.8885 13.5669C14.7713 13.4497 14.7054 13.2908 14.7054 13.125V6.50859L5.77261 15.4422C5.65534 15.5595 5.49628 15.6253 5.33043 15.6253C5.16457 15.6253 5.00551 15.5595 4.88824 15.4422C4.77096 15.3249 4.70508 15.1659 4.70508 15C4.70508 14.8341 4.77096 14.6751 4.88824 14.5578L13.8218 5.625H7.20543C7.03967 5.625 6.88069 5.55915 6.76348 5.44194C6.64627 5.32473 6.58043 5.16576 6.58043 5C6.58043 4.83424 6.64627 4.67527 6.76348 4.55806C6.88069 4.44085 7.03967 4.375 7.20543 4.375H15.3304C15.4962 4.375 15.6552 4.44085 15.7724 4.55806C15.8896 4.67527 15.9554 4.83424 15.9554 5Z" fill="#FDFDFF"/>
</svg>
