<svg width="48" height="48" viewBox="0 0 48 48" fill="none" xmlns="http://www.w3.org/2000/svg">
<rect width="48" height="48" rx="24" fill="#B8ACF1"/>
<path d="M33.3759 24C33.3759 24.2984 33.2574 24.5846 33.0464 24.7955C32.8354 25.0065 32.5493 25.125 32.2509 25.125H18.4696L23.2996 29.9541C23.511 30.1654 23.6297 30.4521 23.6297 30.751C23.6297 31.0499 23.511 31.3365 23.2996 31.5478C23.0883 31.7592 22.8016 31.8779 22.5028 31.8779C22.2039 31.8779 21.9172 31.7592 21.7059 31.5478L14.9559 24.7978C14.851 24.6933 14.7678 24.5691 14.711 24.4324C14.6542 24.2956 14.625 24.149 14.625 24.001C14.625 23.8529 14.6542 23.7063 14.711 23.5696C14.7678 23.4328 14.851 23.3086 14.9559 23.2041L21.7059 16.4541C21.8105 16.3495 21.9348 16.2664 22.0715 16.2098C22.2082 16.1532 22.3548 16.124 22.5028 16.124C22.6508 16.124 22.7973 16.1532 22.934 16.2098C23.0708 16.2664 23.195 16.3495 23.2996 16.4541C23.4043 16.5587 23.4873 16.683 23.5439 16.8197C23.6006 16.9564 23.6297 17.103 23.6297 17.251C23.6297 17.399 23.6006 17.5455 23.5439 17.6822C23.4873 17.819 23.4043 17.9432 23.2996 18.0479L18.4696 22.875H32.2509C32.5493 22.875 32.8354 22.9936 33.0464 23.2045C33.2574 23.4155 33.3759 23.7017 33.3759 24Z" fill="#6148E0"/>
</svg>
