<svg width="105" height="107" viewBox="0 0 105 107" fill="none" xmlns="http://www.w3.org/2000/svg">
<g id="Group">
<path id="Vector" d="M53.3613 35.5729H69.1342V38.4173H53.3613V35.5729Z" fill="#FBFBFC"/>
<path id="Vector_2" d="M37.0703 26.0042H69.1336V28.8486H37.0703V26.0042Z" fill="#FBFBFC"/>
<path id="Vector_3" d="M37.0703 35.5729H49.6543V38.4173H37.0703V35.5729Z" fill="#FBFBFC"/>
<path id="Vector_4" d="M47.1552 78.2372C47.1552 80.3921 48.3619 82.3744 50.1718 83.3224V106.25H48.448C45.0003 88.9258 37.2431 80.5643 27.6753 63.7575C26.0377 60.827 24.8309 57.0345 24.9172 53.7593C24.9172 52.8974 24.831 47.0363 24.9172 46.0881H50.1718V73.0665C48.3618 74.1008 47.1552 75.997 47.1552 78.238V78.2372Z" fill="#FBFBFC"/>
<path id="Vector_5" d="M81.1132 53.6735C81.2855 56.9488 80.0789 60.7412 78.355 63.6718C68.874 80.5653 61.1168 88.9264 57.6691 106.249H55.9453V83.3214C57.7553 82.2871 58.8758 80.3909 58.8758 78.2362C58.8758 76.0816 57.6691 74.0991 55.9453 73.151V46.0859H81.1132C81.1994 46.9479 81.1132 52.8089 81.1132 53.6708V53.6735Z" fill="#FBFBFC"/>
<path id="Vector_6" d="M67.8447 0.751111H46.4693C45.0902 0.751111 43.8835 1.26826 42.9353 2.21637L26.9038 17.9032C25.6971 19.0237 25.0938 20.6613 25.0938 22.2989V42.8981H29.5757V22.2989C29.5757 22.1265 29.6619 21.8679 29.6619 21.6955L35.7814 21.5232C36.2123 21.5232 36.6433 21.5232 36.988 21.437C40.522 21.006 43.711 18.6788 45.09 15.4036C45.521 14.5416 45.6934 13.5935 45.8658 12.6454V5.57773L46.0381 5.40535C46.1243 5.31916 46.2967 5.23297 46.3829 5.23297H67.7583C72.585 5.23297 76.4638 9.19778 76.4638 13.9384V42.7254H80.9457V14.0231C81.1181 6.69675 75.171 0.749634 67.8446 0.749634L67.8447 0.751111Z" fill="#FBFBFC"/>
<path id="Vector_7" d="M93.4365 12.9047C94.0398 14.1114 94.557 15.3181 95.1603 16.5248C95.3327 16.8695 95.6775 17.2143 96.1084 17.4729C97.2289 18.0762 98.3494 18.5934 99.7285 19.1967C98.5218 19.8 97.4014 20.231 96.2808 20.8343C95.7637 21.0929 95.3327 21.6101 95.0741 22.041C94.4708 23.0753 94.0398 24.1959 93.4365 25.4887C92.8332 24.282 92.4022 23.0753 91.7989 22.041C91.5403 21.5239 91.0231 21.0929 90.5922 20.8343C89.5579 20.231 88.4373 19.8 87.1445 19.1967C88.4374 18.5934 89.5579 18.1624 90.6785 17.5591C91.1094 17.3005 91.5404 16.8695 91.799 16.4386C92.3161 15.3181 92.8333 14.1115 93.2642 12.9909C93.2642 12.9047 93.3504 12.9047 93.4366 12.9047H93.4365Z" fill="#FBFBFC"/>
<path id="Vector_8" d="M6.47361 15.4031C7.07695 16.6098 7.5941 17.8165 8.19744 19.0232C8.36982 19.3679 8.71459 19.7127 9.14555 19.9713C10.266 20.5746 11.3865 21.0918 12.7656 21.6951C11.5589 22.2984 10.4385 22.7294 9.31793 23.3327C8.80078 23.5913 8.36982 24.1085 8.11125 24.5394C7.50791 25.5737 7.07695 26.6943 6.47361 27.9871C5.87027 26.7804 5.43932 25.5737 4.83598 24.5394C4.5774 24.0223 4.06025 23.5913 3.6293 23.3327C2.595 22.7294 1.47441 22.2984 0.181641 21.6951C1.47451 21.0918 2.595 20.6608 3.71559 20.0575C4.14654 19.7989 4.5775 19.3679 4.83608 18.937C5.35322 17.8165 5.87037 16.6099 6.30133 15.4893C6.38752 15.4031 6.47371 15.4031 6.47371 15.4031H6.47361Z" fill="#FBFBFC"/>
<path id="Vector_9" d="M93.3538 87.8044C92.3195 85.4773 91.4576 83.4948 90.4233 81.5986C89.9062 80.7367 89.1304 79.8748 88.1823 79.3576C86.2861 78.3233 84.3036 77.4614 81.9766 76.341C84.3036 75.2206 86.4585 74.3587 88.4408 73.2382C89.2165 72.8072 89.9061 72.1177 90.337 71.3419C91.3713 69.3596 92.2332 67.291 93.3536 64.8777C94.4741 67.2048 95.3359 69.2733 96.3702 71.2558C96.8012 72.0316 97.5769 72.8073 98.3525 73.2382C100.335 74.2725 102.403 75.1344 104.817 76.2548C102.49 77.289 100.507 78.0648 98.611 79.1853C97.6629 79.7024 96.801 80.6505 96.1977 81.5986C95.1634 83.4948 94.3876 85.4773 93.3532 87.8044H93.3538Z" fill="#FBFBFC"/>
<path id="Vector_10" d="M24.918 79.789C25.5214 81.0818 26.1247 82.0299 26.4695 83.0642C27.159 85.5639 28.8829 86.7704 31.1238 87.6325C32.0719 87.9772 32.9339 88.4944 34.1404 89.0115C32.3304 89.8734 30.6065 90.563 29.0552 91.4249C28.3657 91.7697 27.6762 92.4592 27.3314 93.1487C26.4695 94.7002 25.78 96.3379 24.918 98.2339C24.0561 96.4239 23.2804 94.9586 22.591 93.3209C22.16 92.2866 21.4705 91.5971 20.4361 91.166C18.8846 90.5627 17.4195 89.787 15.6094 88.925C17.5056 88.0631 19.2294 87.2874 20.7809 86.4254C21.3842 86.0806 21.9875 85.4773 22.3323 84.874C23.3666 83.4087 24.0561 81.7711 24.918 79.7888V79.789Z" fill="#FBFBFC"/>
</g>
</svg>
