<svg width="500" height="501" viewBox="0 0 500 501" fill="none" xmlns="http://www.w3.org/2000/svg">
<g clip-path="url(#clip0_2070_2140)">
<path d="M484.946 52.9366C473.196 21.9166 448.189 2.63462 429.091 9.86862C419.187 13.6206 412.829 23.7746 410.63 36.9996C372.579 21.6096 322.766 31.8476 288.713 38.9416C237.625 49.5856 184.408 -18.5324 97.8418 27.5896C91.1058 31.1786 84.9828 35.6336 79.4198 40.8126C79.4278 31.4336 77.1688 22.3356 69.7188 17.1586C51.5708 4.54963 32.2208 41.3386 32.2208 41.3386C32.2208 41.3386 6.4608 66.5066 5.5928 155.829C4.7248 245.151 24.0818 199.497 24.0818 199.497L28.4118 188.443C25.1528 238.832 29.6158 285.3 32.5618 303.196C35.3028 319.846 40.5458 334.337 47.7778 346.967C42.0978 347.672 37.3188 349.799 33.8588 353.487C19.7218 368.557 32.8448 403.836 63.1698 432.284C93.4948 460.732 129.539 471.577 143.676 456.507C152.137 447.488 150.826 431.229 141.915 413.53C198.447 430.185 265.815 429.481 317.241 426.205C318.953 426.393 320.39 426.532 321.453 426.608C331.76 427.344 290.532 437.651 297.158 455.32C303.784 472.989 400.963 461.21 445.135 428.081C489.307 394.952 477.528 377.283 475.319 361.823C473.11 346.363 451.761 352.989 447.343 365.504C446.74 367.214 446.302 368.039 445.995 368.199C447.788 353.529 447.003 338.056 448.091 324.129C451.209 284.217 459.978 244.769 463.826 204.889C466.346 178.774 468.509 150.604 465.362 123.612C467.506 123.425 469.609 122.973 471.642 122.203C490.74 114.968 496.696 83.9566 484.946 52.9366Z" fill="#1EB649"/>
<path opacity="0.7" d="M484.946 52.9366C473.196 21.9166 448.189 2.63462 429.091 9.86862C419.187 13.6206 412.829 23.7746 410.63 36.9996C372.579 21.6096 322.766 31.8476 288.713 38.9416C237.625 49.5856 184.408 -18.5324 97.8418 27.5896C91.1058 31.1786 84.9828 35.6336 79.4198 40.8126C79.4278 31.4336 77.1688 22.3356 69.7188 17.1586C51.5708 4.54963 32.2208 41.3386 32.2208 41.3386C32.2208 41.3386 6.4608 66.5066 5.5928 155.829C4.7248 245.151 24.0818 199.497 24.0818 199.497L28.4118 188.443C25.1528 238.832 29.6158 285.3 32.5618 303.196C35.3028 319.846 40.5458 334.337 47.7778 346.967C42.0978 347.672 37.3188 349.799 33.8588 353.487C19.7218 368.557 32.8448 403.836 63.1698 432.284C93.4948 460.732 129.539 471.577 143.676 456.507C152.137 447.488 150.826 431.229 141.915 413.53C198.447 430.185 265.815 429.481 317.241 426.205C318.953 426.393 320.39 426.532 321.453 426.608C331.76 427.344 290.532 437.651 297.158 455.32C303.784 472.989 400.963 461.21 445.135 428.081C489.307 394.952 477.528 377.283 475.319 361.823C473.11 346.363 451.761 352.989 447.343 365.504C446.74 367.214 446.302 368.039 445.995 368.199C447.788 353.529 447.003 338.056 448.091 324.129C451.209 284.217 459.978 244.769 463.826 204.889C466.346 178.774 468.509 150.604 465.362 123.612C467.506 123.425 469.609 122.973 471.642 122.203C490.74 114.968 496.696 83.9566 484.946 52.9366Z" fill="white"/>
<path d="M140.049 460.933C140.049 460.933 128.567 442.89 122.416 438.79C116.265 434.689 117.085 456.833 117.085 456.833C117.085 456.833 136.358 462.984 140.049 460.933Z" fill="#1EB649" stroke="#263238" stroke-miterlimit="10"/>
<path d="M127.439 465.866L122.99 413.394C122.99 413.394 119.641 376.636 121.081 365.513C122.52 354.39 126.393 334.489 124.822 326.899C124.271 324.235 121.461 319.023 118.048 313.381C118.004 312.819 108.858 297.457 105.717 292.877C102.576 288.297 97.9974 284.502 94.7254 284.895C91.4544 285.288 86.7014 288.4 85.5224 289.186C84.3094 289.995 82.6524 290.976 81.0814 292.132C78.5034 294.03 76.1684 296.4 76.4054 299.249L76.2754 299.289C76.2754 299.289 72.2194 301.906 70.9104 303.607C69.1534 305.891 69.6024 309.234 69.6024 309.626C69.6024 310.019 63.5834 315.384 63.9754 319.309C64.3684 323.235 67.9014 333.179 68.5554 335.011C69.2094 336.843 81.5094 366.939 81.5094 366.939L74.3124 465.864H127.439V465.866Z" fill="white" stroke="#263238" stroke-miterlimit="10"/>
<path d="M94.2168 370.702C94.2168 370.702 101.687 368.02 104.178 361.316C106.668 354.612 106.477 351.547 106.477 351.547" stroke="#263238" stroke-miterlimit="10"/>
<path d="M361.119 460.933C361.119 460.933 372.601 442.89 378.752 438.79C384.903 434.689 384.083 456.833 384.083 456.833C384.083 456.833 364.809 462.984 361.119 460.933Z" fill="#1EB649" stroke="#263238" stroke-miterlimit="10"/>
<path d="M372.559 465.866L377.008 413.394C377.008 413.394 381.261 377.086 379.822 365.963C378.383 354.84 373.606 334.489 375.176 326.899C375.727 324.235 378.537 319.023 381.95 313.381C381.994 312.819 391.14 297.457 394.281 292.877C397.422 288.297 402.001 284.502 405.273 284.895C408.544 285.288 413.297 288.4 414.476 289.186C415.689 289.995 417.346 290.976 418.917 292.132C421.495 294.03 423.83 296.4 423.593 299.249L423.723 299.289C423.723 299.289 427.779 301.906 429.088 303.607C430.845 305.891 430.397 309.234 430.397 309.626C430.397 310.019 436.416 315.384 436.024 319.309C435.631 323.235 432.098 333.179 431.444 335.011C430.79 336.843 418.49 366.939 418.49 366.939L425.687 465.864H372.559V465.866Z" fill="white" stroke="#263238" stroke-miterlimit="10"/>
<path d="M405.783 370.702C405.783 370.702 398.312 368.02 395.822 361.316C393.332 354.612 393.523 351.547 393.523 351.547" stroke="#263238" stroke-miterlimit="10"/>
<path d="M402.306 31.3271H95.7305V357.338H402.306V31.3271Z" fill="#263238" stroke="#263238" stroke-miterlimit="10"/>
<path d="M88.0516 287.119C88.0516 287.119 84.9106 275.735 85.6966 273.51C86.4816 271.286 89.7526 268.145 93.5476 267.752C97.3426 267.359 104.147 273.248 107.68 275.865C111.213 278.482 116.84 290.651 116.709 292.745C116.578 294.839 113.307 297.325 111.736 298.11C110.166 298.895 108.465 298.502 108.465 298.502C108.465 298.502 99.0426 289.342 96.4256 287.772C93.8086 286.203 88.0516 287.119 88.0516 287.119Z" fill="white" stroke="#263238" stroke-miterlimit="10"/>
<path d="M88.1816 280.838C88.1816 280.838 90.2756 285.81 92.8926 287.773L88.1816 280.838Z" fill="white"/>
<path d="M88.1816 280.838C88.1816 280.838 90.2756 285.81 92.8926 287.773" stroke="#263238" stroke-miterlimit="10"/>
<path d="M411.946 287.119C411.946 287.119 415.086 275.735 414.301 273.51C413.516 271.286 410.245 268.145 406.45 267.752C402.655 267.359 395.851 273.248 392.318 275.865C388.785 278.482 383.158 290.651 383.289 292.745C383.42 294.839 386.691 297.325 388.261 298.11C389.831 298.895 391.532 298.502 391.532 298.502C391.532 298.502 400.954 289.342 403.57 287.772C406.189 286.203 411.946 287.119 411.946 287.119Z" fill="white" stroke="#263238" stroke-miterlimit="10"/>
<path d="M411.815 280.838C411.815 280.838 409.721 285.81 407.104 287.773L411.815 280.838Z" fill="white"/>
<path d="M411.815 280.838C411.815 280.838 409.721 285.81 407.104 287.773" stroke="#263238" stroke-miterlimit="10"/>
<path d="M88.0516 287.119C88.0516 287.119 84.9106 275.735 85.6966 273.51C86.4816 271.286 89.7526 268.145 93.5476 267.752C97.3426 267.359 104.147 273.248 107.68 275.865C111.213 278.482 116.84 290.651 116.709 292.745C116.578 294.839 113.307 297.325 111.736 298.11C110.166 298.895 108.465 298.502 108.465 298.502C108.465 298.502 99.0426 289.342 96.4256 287.772C93.8086 286.203 88.0516 287.119 88.0516 287.119Z" fill="white" stroke="#263238" stroke-miterlimit="10"/>
<path d="M88.1816 280.838C88.1816 280.838 90.2756 285.81 92.8926 287.773L88.1816 280.838Z" fill="white"/>
<path d="M88.1816 280.838C88.1816 280.838 90.2756 285.81 92.8926 287.773" stroke="#263238" stroke-miterlimit="10"/>
<path d="M82.6504 291.001L93.0834 285.255C93.0834 285.255 98.2244 283.441 102.004 287.674C105.784 291.908 113.193 302.341 115.915 308.389C118.637 314.437 119.939 317.137 118.124 321.673C116.31 326.209 110.925 324.719 110.925 324.719C110.925 324.719 96.5614 308.087 94.5954 306.575C92.6294 305.063 90.8154 304.458 90.8154 304.458" fill="white"/>
<path d="M82.6504 291.001L93.0834 285.255C93.0834 285.255 98.2244 283.441 102.004 287.674C105.784 291.908 113.193 302.341 115.915 308.389C118.637 314.437 119.939 317.137 118.124 321.673C116.31 326.209 110.925 324.719 110.925 324.719C110.925 324.719 96.5614 308.087 94.5954 306.575C92.6294 305.063 90.8154 304.458 90.8154 304.458" stroke="#263238" stroke-miterlimit="10"/>
<path d="M75.752 301.775C75.752 301.775 85.174 300.205 90.146 300.99C95.118 301.775 98.782 306.878 99.829 308.318C100.876 309.757 110.952 324.675 113.961 327.815C116.971 330.956 117.102 334.881 115.793 336.582C114.484 338.283 109.774 339.723 107.418 338.937C105.063 338.152 102.707 335.142 102.707 335.142" fill="white"/>
<path d="M75.752 301.775C75.752 301.775 85.174 300.205 90.146 300.99C95.118 301.775 98.782 306.878 99.829 308.318C100.876 309.757 110.952 324.675 113.961 327.815C116.971 330.956 117.102 334.881 115.793 336.582C114.484 338.283 109.774 339.723 107.418 338.937C105.063 338.152 102.707 335.142 102.707 335.142" stroke="#263238" stroke-miterlimit="10"/>
<path d="M82.1634 328.731C82.9484 332.002 85.3044 333.049 85.3044 333.049C85.3044 333.049 79.9394 336.059 76.2754 336.713" stroke="#263238" stroke-miterlimit="10"/>
<path d="M71.041 327.162L85.304 333.05C85.304 333.05 88.183 337.106 89.491 339.069C90.799 341.032 97.997 347.182 100.744 347.182C103.492 347.182 105.717 344.565 105.455 342.209C105.193 339.854 102.053 334.881 98.912 328.339C95.772 321.796 90.276 317.478 86.743 316.039C83.21 314.6 73.265 310.936 73.265 310.936" fill="white"/>
<path d="M71.041 327.162L85.304 333.05C85.304 333.05 88.183 337.106 89.491 339.069C90.799 341.032 97.997 347.182 100.744 347.182C103.492 347.182 105.717 344.565 105.455 342.209C105.193 339.854 102.053 334.881 98.912 328.339C95.772 321.796 90.276 317.478 86.743 316.039C83.21 314.6 73.265 310.936 73.265 310.936" stroke="#263238" stroke-miterlimit="10"/>
<path d="M411.946 287.119C411.946 287.119 415.086 275.735 414.301 273.51C413.516 271.286 410.245 268.145 406.45 267.752C402.655 267.359 395.851 273.248 392.318 275.865C388.785 278.482 383.158 290.651 383.289 292.745C383.42 294.839 386.691 297.325 388.261 298.11C389.831 298.895 391.532 298.502 391.532 298.502C391.532 298.502 400.954 289.342 403.57 287.772C406.189 286.203 411.946 287.119 411.946 287.119Z" fill="white" stroke="#263238" stroke-miterlimit="10"/>
<path d="M411.815 280.838C411.815 280.838 409.721 285.81 407.104 287.773L411.815 280.838Z" fill="white"/>
<path d="M411.815 280.838C411.815 280.838 409.721 285.81 407.104 287.773" stroke="#263238" stroke-miterlimit="10"/>
<path d="M417.348 291.001L406.915 285.255C406.915 285.255 401.774 283.441 397.994 287.674C394.214 291.908 386.805 302.341 384.083 308.389C381.361 314.437 380.059 317.137 381.874 321.673C383.688 326.209 389.073 324.719 389.073 324.719C389.073 324.719 403.437 308.087 405.403 306.575C407.369 305.063 409.183 304.458 409.183 304.458" fill="white"/>
<path d="M417.348 291.001L406.915 285.255C406.915 285.255 401.774 283.441 397.994 287.674C394.214 291.908 386.805 302.341 384.083 308.389C381.361 314.437 380.059 317.137 381.874 321.673C383.688 326.209 389.073 324.719 389.073 324.719C389.073 324.719 403.437 308.087 405.403 306.575C407.369 305.063 409.183 304.458 409.183 304.458" stroke="#263238" stroke-miterlimit="10"/>
<path d="M424.247 301.775C424.247 301.775 414.825 300.205 409.853 300.99C404.881 301.775 401.217 306.878 400.17 308.318C399.123 309.757 389.048 324.675 386.038 327.815C383.028 330.956 382.897 334.881 384.206 336.582C385.515 338.283 390.225 339.723 392.581 338.937C394.936 338.152 397.292 335.142 397.292 335.142" fill="white"/>
<path d="M424.247 301.775C424.247 301.775 414.825 300.205 409.853 300.99C404.881 301.775 401.217 306.878 400.17 308.318C399.123 309.757 389.048 324.675 386.038 327.815C383.028 330.956 382.897 334.881 384.206 336.582C385.515 338.283 390.225 339.723 392.581 338.937C394.936 338.152 397.292 335.142 397.292 335.142" stroke="#263238" stroke-miterlimit="10"/>
<path d="M417.836 328.731C417.051 332.002 414.695 333.049 414.695 333.049C414.695 333.049 420.06 336.059 423.724 336.713" stroke="#263238" stroke-miterlimit="10"/>
<path d="M428.956 327.162L414.693 333.05C414.693 333.05 411.814 337.106 410.506 339.069C409.198 341.032 402.001 347.182 399.253 347.182C396.505 347.182 394.28 344.565 394.542 342.209C394.804 339.854 397.944 334.881 401.085 328.339C404.225 321.796 409.721 317.478 413.254 316.039C416.787 314.6 426.732 310.936 426.732 310.936" fill="white"/>
<path d="M428.956 327.162L414.693 333.05C414.693 333.05 411.814 337.106 410.506 339.069C409.198 341.032 402.001 347.182 399.253 347.182C396.505 347.182 394.28 344.565 394.542 342.209C394.804 339.854 397.944 334.881 401.085 328.339C404.225 321.796 409.721 317.478 413.254 316.039C416.787 314.6 426.732 310.936 426.732 310.936" stroke="#263238" stroke-miterlimit="10"/>
<path d="M429.6 459.703L434.93 500.299H366.451L368.911 476.926L429.6 459.703Z" fill="#1EB649" stroke="#263238" stroke-miterlimit="10"/>
<path d="M427.138 425.258C427.138 425.258 402.124 436.74 390.643 444.531C379.161 452.322 362.349 457.243 361.119 460.933C359.889 464.623 361.529 469.954 361.939 471.184C362.349 472.414 360.709 485.536 364.399 486.766C368.089 487.996 427.958 470.364 431.239 465.443C434.519 460.522 432.879 454.371 432.469 449.451C432.059 444.531 429.599 425.258 427.138 425.258Z" fill="#1EB649" stroke="#263238" stroke-miterlimit="10"/>
<path d="M72.2783 459.703L66.9473 500.299H135.427L132.966 476.926L72.2783 459.703Z" fill="#1EB649" stroke="#263238" stroke-miterlimit="10"/>
<path d="M74.7367 425.258C74.7367 425.258 99.7507 436.74 111.232 444.531C122.714 452.322 139.526 457.243 140.756 460.933C141.986 464.623 140.346 469.954 139.936 471.184C139.526 472.414 141.166 485.536 137.476 486.766C133.786 487.996 73.9167 470.364 70.6357 465.443C67.3557 460.522 68.9957 454.371 69.4057 449.451C69.8157 444.531 72.2767 425.258 74.7367 425.258Z" fill="#1EB649" stroke="#263238" stroke-miterlimit="10"/>
<path d="M131.738 347.623C137.656 347.623 142.453 342.826 142.453 336.908C142.453 330.991 137.656 326.193 131.738 326.193C125.821 326.193 121.023 330.991 121.023 336.908C121.023 342.826 125.821 347.623 131.738 347.623Z" fill="#ADADAD"/>
<path d="M186.276 303.347C187.227 297.506 183.263 292 177.422 291.049C171.581 290.098 166.075 294.062 165.124 299.903C164.173 305.744 168.137 311.249 173.978 312.2C179.819 313.151 185.325 309.187 186.276 303.347Z" fill="#1EB649"/>
<path d="M116.267 151.363C121.734 149.098 124.331 142.83 122.066 137.362C119.801 131.895 113.533 129.299 108.066 131.563C102.598 133.828 100.002 140.096 102.267 145.564C104.531 151.031 110.799 153.627 116.267 151.363Z" fill="#1EB649"/>
<path d="M135.931 218.572C140.115 214.387 140.115 207.603 135.931 203.419C131.746 199.234 124.962 199.234 120.778 203.419C116.593 207.603 116.593 214.387 120.778 218.572C124.962 222.756 131.746 222.756 135.931 218.572Z" fill="#ADADAD"/>
<path d="M211.312 64.5464C212.242 58.7021 208.258 53.2102 202.414 52.2799C196.569 51.3496 191.078 55.3333 190.147 61.1776C189.217 67.022 193.201 72.5139 199.045 73.4442C204.889 74.3744 210.381 70.3908 211.312 64.5464Z" fill="#B2B2B2"/>
<path d="M132.005 62.0014C136.19 57.8169 136.19 51.0327 132.005 46.8482C127.821 42.6638 121.036 42.6638 116.852 46.8482C112.668 51.0327 112.668 57.817 116.852 62.0014C121.036 66.1858 127.821 66.1858 132.005 62.0014Z" fill="#808080"/>
<path d="M299.08 74.1336C300.446 68.3757 296.886 62.6007 291.128 61.2349C285.37 59.8691 279.595 63.4296 278.229 69.1876C276.863 74.9455 280.424 80.7205 286.182 82.0863C291.94 83.4521 297.714 79.8916 299.08 74.1336Z" fill="#1EB649"/>
<path d="M351.804 52.0122C355.514 47.4017 354.784 40.6567 350.173 36.9469C345.563 33.2371 338.818 33.9672 335.108 38.5777C331.398 43.1882 332.128 49.9332 336.739 53.643C341.349 57.3528 348.094 56.6227 351.804 52.0122Z" fill="#808080"/>
<path d="M396.441 88.4227C397.844 82.6742 394.322 76.8762 388.574 75.4726C382.825 74.0689 377.027 77.591 375.624 83.3395C374.22 89.088 377.742 94.886 383.491 96.2896C389.239 97.6933 395.037 94.1712 396.441 88.4227Z" fill="#525252"/>
<path d="M386.462 226.689C390.321 222.203 389.812 215.438 385.326 211.579C380.84 207.72 374.075 208.229 370.216 212.715C366.357 217.201 366.865 223.966 371.352 227.825C375.838 231.684 382.603 231.176 386.462 226.689Z" fill="#1EB649"/>
<path d="M345.907 313.773C347.401 308.047 343.97 302.194 338.244 300.7C332.518 299.207 326.665 302.638 325.171 308.364C323.678 314.09 327.109 319.942 332.835 321.436C338.561 322.93 344.413 319.499 345.907 313.773Z" fill="#525252"/>
<path d="M95.7324 265.276C96.6454 265.529 97.6024 265.675 98.5964 265.675C104.514 265.675 109.311 260.878 109.311 254.96C109.311 249.042 104.514 244.245 98.5964 244.245C97.6034 244.245 96.6454 244.391 95.7324 244.644V265.276Z" fill="#525252"/>
<path d="M245.607 32.7801C245.607 38.6981 250.404 43.4951 256.322 43.4951C262.24 43.4951 267.037 38.6981 267.037 32.7801C267.037 32.2861 266.992 31.8031 266.927 31.3271H245.716C245.652 31.8031 245.607 32.2861 245.607 32.7801Z" fill="#525252"/>
<path d="M402.308 144.499C399.183 146.371 397.084 149.78 397.084 153.687C397.084 157.595 399.183 161.003 402.308 162.876V144.499Z" fill="#525252"/>
<path d="M246.784 353.678C246.784 347.76 241.987 342.963 236.069 342.963C230.151 342.963 225.354 347.76 225.354 353.678C225.354 354.966 225.593 356.195 226.009 357.338H246.129C246.546 356.195 246.784 354.966 246.784 353.678Z" fill="#808080"/>
<path d="M382.098 352.302C382.098 346.384 377.301 341.587 371.383 341.587C365.465 341.587 360.668 346.384 360.668 352.302C360.668 354.123 361.125 355.837 361.927 357.339H380.839C381.64 355.836 382.098 354.123 382.098 352.302Z" fill="#B2B2B2"/>
<path d="M271.508 310.603C272.459 304.763 268.495 299.257 262.654 298.306C256.813 297.355 251.308 301.319 250.357 307.16C249.406 313 253.37 318.506 259.21 319.457C265.051 320.408 270.557 316.444 271.508 310.603Z" fill="#ADADAD"/>
<path d="M152.786 177.321V104.812H137.451V100.647H172.854V104.812H157.898V177.321H152.786Z" fill="#1EB649"/>
<path d="M181.752 177.321V100.647H186.958V135.198H213.842V100.647H218.953V177.321H213.842V139.173H186.958V177.321H181.752Z" fill="#1EB649"/>
<path d="M229.08 177.321L245.172 100.647H251.136L267.322 177.321H262.116L258.14 156.117H238.261L234.191 177.321H229.08ZM239.019 152.331H257.478L248.201 106.894L239.019 152.331Z" fill="#1EB649"/>
<path d="M277.449 177.321V100.647H281.519L307.55 165.394V100.647H312.094V177.321H308.024L281.992 112.479V177.321H277.449Z" fill="#1EB649"/>
<path d="M326.105 177.321V100.647H331.311V143.717L353.556 100.647H358.667L342.48 133.115L362.548 177.321H357.436L339.356 137.564L331.31 152.236V177.321H326.105Z" fill="#1EB649"/>
<path d="M191.03 277.827V253.31L173.328 201.153H178.629L193.68 247.157L207.974 201.153H213.275L196.141 253.31V277.827H191.03Z" fill="#1EB649"/>
<path d="M239.588 278.869C234.602 278.869 230.737 277.875 227.992 275.888C225.247 273.9 223.338 271.188 222.265 267.747C221.191 264.308 220.656 260.411 220.656 256.057V222.548C220.656 218.193 221.224 214.345 222.36 211C223.496 207.656 225.436 205.036 228.181 203.143C230.926 201.25 234.727 200.303 239.588 200.303C244.446 200.303 248.249 201.25 250.994 203.143C253.739 205.036 255.68 207.656 256.816 211C257.952 214.345 258.52 218.194 258.52 222.548V256.152C258.52 260.507 257.983 264.387 256.911 267.795C255.837 271.203 253.929 273.9 251.184 275.889C248.439 277.875 244.572 278.869 239.588 278.869ZM239.588 274.609C243.247 274.609 246.072 273.884 248.06 272.432C250.048 270.981 251.421 268.946 252.178 266.327C252.935 263.709 253.314 260.664 253.314 257.192V221.79C253.314 218.32 252.935 215.291 252.178 212.703C251.421 210.116 250.063 208.112 248.107 206.692C246.15 205.272 243.311 204.562 239.588 204.562C235.927 204.562 233.104 205.272 231.116 206.692C229.128 208.112 227.756 210.116 226.998 212.703C226.241 215.291 225.862 218.321 225.862 221.79V257.192C225.862 260.664 226.24 263.709 226.998 266.327C227.755 268.946 229.128 270.981 231.116 272.432C233.104 273.885 235.927 274.609 239.588 274.609Z" fill="#1EB649"/>
<path d="M289.285 278.868C284.299 278.868 280.418 278.031 277.642 276.36C274.865 274.688 272.924 272.417 271.821 269.544C270.716 266.674 270.164 263.439 270.164 259.842V201.154H275.276V259.937C275.276 262.714 275.669 265.223 276.459 267.462C277.247 269.703 278.667 271.454 280.719 272.716C282.769 273.979 285.625 274.608 289.285 274.608C292.755 274.608 295.517 273.962 297.568 272.668C299.618 271.376 301.085 269.624 301.969 267.415C302.852 265.206 303.294 262.714 303.294 259.937V201.154H308.311V259.842C308.311 263.439 307.71 266.674 306.513 269.544C305.313 272.417 303.342 274.689 300.596 276.36C297.852 278.031 294.081 278.868 289.285 278.868Z" fill="#1EB649"/>
<path d="M320.9 277.827V270.822H326.58V277.827H320.9ZM322.888 261.357L320.994 201.154H326.674L324.687 261.357H322.888Z" fill="#1EB649"/>
</g>
<defs>
<clipPath id="clip0_2070_2140">
<rect width="500" height="500" fill="white" transform="translate(0 0.298828)"/>
</clipPath>
</defs>
</svg>
