<svg width="1280" height="430" viewBox="0 0 1280 430" fill="none" xmlns="http://www.w3.org/2000/svg">
<g clip-path="url(#clip0_2167_10235)">
<rect width="1280" height="430" fill="#6148E0" fill-opacity="0.5"/>
<rect x="589.546" y="83" width="100" height="100" rx="50" fill="#FDFDFF"/>
<path d="M612.421 129H622.108V156.125H612.421V129ZM653.108 156.125H625.983V127.444L631.877 118.603L633.515 107.139C633.65 106.217 634.112 105.375 634.816 104.765C635.52 104.154 636.419 103.816 637.351 103.812H637.608C639.15 103.814 640.627 104.427 641.717 105.517C642.807 106.606 643.419 108.084 643.421 109.625V121.25H658.921C660.976 121.253 662.945 122.07 664.398 123.523C665.851 124.976 666.668 126.945 666.671 129V142.562C666.667 146.158 665.237 149.606 662.694 152.148C660.151 154.691 656.704 156.121 653.108 156.125Z" fill="#6148E0"/>
<path d="M233.884 261.84L232.204 271.52H219.724V316H206.524V271.52H193.644V261.84H233.884ZM252.031 278.88C253.418 277.653 255.018 276.747 256.831 276.16C258.645 275.573 260.538 275.28 262.511 275.28C266.671 275.28 269.631 276.533 271.391 279.04C273.151 281.547 274.031 284.933 274.031 289.2V316H261.311V291.04C261.311 289.173 261.071 287.68 260.591 286.56C260.165 285.387 259.338 284.8 258.111 284.8C257.418 284.8 256.698 285.04 255.951 285.52C255.258 285.947 254.618 286.613 254.031 287.52C253.445 288.373 252.965 289.44 252.591 290.72C252.218 291.947 252.031 293.333 252.031 294.88V316H239.391V260.16L252.031 258V278.88ZM317.151 296.72C317.151 299.92 317.364 302.587 317.791 304.72C318.217 306.853 318.724 308.56 319.311 309.84C319.951 311.387 320.697 312.587 321.551 313.44L311.391 316.64C310.804 316.107 310.271 315.44 309.791 314.64C309.364 313.947 308.937 313.12 308.511 312.16C308.137 311.147 307.817 309.973 307.551 308.64C306.644 311.147 305.311 313.093 303.551 314.48C301.791 315.813 299.471 316.48 296.591 316.48C293.977 316.48 291.684 316 289.711 315.04C287.791 314.08 286.191 312.747 284.911 311.04C283.631 309.28 282.671 307.173 282.031 304.72C281.444 302.267 281.151 299.547 281.151 296.56C281.151 293.52 281.631 290.693 282.591 288.08C283.604 285.467 284.991 283.227 286.751 281.36C288.511 279.44 290.617 277.947 293.071 276.88C295.524 275.813 298.244 275.28 301.231 275.28C302.884 275.28 304.644 275.413 306.511 275.68C308.377 275.893 310.084 276.16 311.631 276.48C313.177 276.747 314.457 277.013 315.471 277.28C316.537 277.493 317.097 277.6 317.151 277.6V296.72ZM298.671 307.2C299.471 307.2 300.217 306.853 300.911 306.16C301.657 305.467 302.297 304.533 302.831 303.36C303.364 302.187 303.764 300.853 304.031 299.36C304.351 297.813 304.511 296.187 304.511 294.48V285.2C304.137 285.04 303.604 284.907 302.911 284.8C302.271 284.64 301.711 284.56 301.231 284.56C299.951 284.56 298.884 284.853 298.031 285.44C297.177 285.973 296.484 286.747 295.951 287.76C295.471 288.72 295.124 289.893 294.911 291.28C294.697 292.667 294.591 294.16 294.591 295.76C294.591 297.253 294.617 298.693 294.671 300.08C294.724 301.413 294.884 302.613 295.151 303.68C295.471 304.747 295.897 305.6 296.431 306.24C296.964 306.88 297.711 307.2 298.671 307.2ZM349.424 316V291.04C349.424 289.173 349.184 287.68 348.704 286.56C348.277 285.387 347.45 284.8 346.224 284.8C344.73 284.8 343.344 285.787 342.064 287.76C340.784 289.68 340.144 292.4 340.144 295.92V316H327.504V295.2C327.504 292 327.264 289.36 326.784 287.28C326.357 285.147 325.85 283.413 325.264 282.08C324.624 280.587 323.904 279.387 323.104 278.48L333.264 275.28C333.744 275.813 334.224 276.427 334.704 277.12C335.13 277.707 335.53 278.48 335.904 279.44C336.33 280.347 336.677 281.387 336.944 282.56C338.33 280.053 340.224 278.213 342.624 277.04C345.077 275.867 347.744 275.28 350.624 275.28C354.784 275.28 357.744 276.56 359.504 279.12C361.264 281.627 362.144 284.987 362.144 289.2V316H349.424ZM384.275 258V278.96C385.288 278.053 386.622 277.227 388.275 276.48C389.928 275.68 392.088 275.28 394.755 275.28C396.408 275.28 397.955 275.52 399.395 276C400.835 276.48 402.062 277.2 403.075 278.16C404.142 279.067 404.968 280.187 405.555 281.52C406.195 282.8 406.515 284.267 406.515 285.92C406.515 288.32 406.062 290.32 405.155 291.92C404.302 293.467 403.342 294.693 402.275 295.6C401.048 296.667 399.662 297.52 398.115 298.16L409.315 316H394.915C392.568 312.053 390.675 308.453 389.235 305.2C387.795 301.893 386.808 298.827 386.275 296L386.195 294.8C386.568 294.747 387.182 294.613 388.035 294.4C388.888 294.133 389.742 293.76 390.595 293.28C391.502 292.747 392.275 292.08 392.915 291.28C393.608 290.48 393.955 289.52 393.955 288.4C393.955 287.173 393.635 286.24 392.995 285.6C392.408 284.907 391.635 284.56 390.675 284.56C389.448 284.56 388.408 284.853 387.555 285.44C386.755 286.027 386.115 286.693 385.635 287.44C385.155 288.187 384.808 288.933 384.595 289.68C384.382 290.373 384.275 290.88 384.275 291.2V316H371.635V260.16L384.275 258ZM470.594 297.52C470.594 299.227 470.728 300.827 470.994 302.32C471.314 303.76 471.661 305.2 472.034 306.64C472.408 308.027 472.754 309.467 473.074 310.96C473.394 312.453 473.554 314.053 473.554 315.76C473.554 321.36 471.981 325.653 468.834 328.64C465.688 331.68 461.394 333.2 455.954 333.2C453.501 333.2 450.941 332.907 448.274 332.32C445.608 331.733 442.994 330.907 440.434 329.84L443.394 320.08C445.741 320.88 447.794 321.493 449.554 321.92C451.314 322.4 453.181 322.64 455.154 322.64C457.288 322.64 458.994 322.027 460.274 320.8C461.608 319.573 462.274 317.813 462.274 315.52C462.274 314.453 462.194 313.493 462.034 312.64C461.874 311.733 461.581 310.747 461.154 309.68C459.768 312.08 457.874 313.813 455.474 314.88C453.074 315.947 450.488 316.48 447.714 316.48C445.634 316.48 443.848 316.16 442.354 315.52C440.914 314.827 439.714 313.893 438.754 312.72C437.848 311.493 437.181 310.027 436.754 308.32C436.381 306.613 436.194 304.693 436.194 302.56V275.84H448.914V300.88C448.914 302.747 449.128 304.267 449.554 305.44C450.034 306.56 450.888 307.12 452.114 307.12C452.808 307.12 453.501 306.88 454.194 306.4C454.941 305.867 455.608 305.147 456.194 304.24C456.781 303.28 457.261 302.133 457.634 300.8C458.008 299.467 458.194 297.973 458.194 296.32V275.84H470.914L470.594 297.52ZM497.704 275.04C504.051 275.04 508.664 276.853 511.544 280.48C514.478 284.107 515.944 289.12 515.944 295.52C515.944 298.56 515.544 301.387 514.744 304C513.998 306.56 512.824 308.8 511.224 310.72C509.678 312.587 507.704 314.08 505.304 315.2C502.958 316.267 500.211 316.8 497.064 316.8C493.864 316.8 491.091 316.347 488.744 315.44C486.451 314.48 484.558 313.12 483.064 311.36C481.624 309.6 480.531 307.467 479.784 304.96C479.091 302.4 478.744 299.547 478.744 296.4C478.744 293.36 479.118 290.533 479.864 287.92C480.664 285.307 481.838 283.067 483.384 281.2C484.984 279.28 486.958 277.787 489.304 276.72C491.704 275.6 494.504 275.04 497.704 275.04ZM496.984 284.56C496.024 284.56 495.224 284.853 494.584 285.44C493.944 285.973 493.438 286.747 493.064 287.76C492.744 288.72 492.504 289.867 492.344 291.2C492.238 292.533 492.184 293.973 492.184 295.52C492.184 297.12 492.264 298.64 492.424 300.08C492.584 301.52 492.851 302.773 493.224 303.84C493.651 304.907 494.238 305.76 494.984 306.4C495.731 306.987 496.664 307.28 497.784 307.28C498.744 307.28 499.544 306.987 500.184 306.4C500.824 305.813 501.304 305.04 501.624 304.08C501.998 303.067 502.238 301.893 502.344 300.56C502.504 299.227 502.584 297.813 502.584 296.32C502.584 294.667 502.504 293.147 502.344 291.76C502.184 290.32 501.891 289.067 501.464 288C501.091 286.933 500.531 286.107 499.784 285.52C499.038 284.88 498.104 284.56 496.984 284.56ZM545.107 275.84H557.747V296.72C557.747 299.92 557.96 302.587 558.387 304.72C558.814 306.853 559.32 308.56 559.907 309.84C560.547 311.387 561.294 312.587 562.147 313.44L551.987 316.64C551.507 316.16 551.027 315.547 550.547 314.8C550.12 314.213 549.694 313.467 549.267 312.56C548.84 311.6 548.494 310.507 548.227 309.28C546.84 311.787 544.92 313.627 542.467 314.8C540.067 315.92 537.454 316.48 534.627 316.48C532.547 316.48 530.76 316.16 529.267 315.52C527.827 314.827 526.627 313.893 525.667 312.72C524.76 311.493 524.094 310.027 523.667 308.32C523.294 306.613 523.107 304.693 523.107 302.56V275.84H535.827V300.88C535.827 302.747 536.04 304.267 536.467 305.44C536.947 306.56 537.8 307.12 539.027 307.12C540.52 307.12 541.907 306.133 543.187 304.16C544.467 302.133 545.107 299.36 545.107 295.84V275.84ZM611.549 269.68C611.282 269.253 610.829 268.827 610.189 268.4C609.602 267.92 608.909 267.68 608.109 267.68C606.882 267.68 605.842 268.107 604.989 268.96C604.135 269.76 603.709 270.933 603.709 272.48C603.709 273.707 603.815 274.827 604.029 275.84H614.269L612.669 285.44H605.549V314.64C605.549 317.68 605.069 320.24 604.109 322.32C603.202 324.4 602.029 326.16 600.589 327.6C599.149 329.04 597.522 330.24 595.709 331.2C593.949 332.16 592.242 333.04 590.589 333.84L584.829 324.48C587.389 323.147 589.362 321.707 590.749 320.16C592.189 318.667 592.909 316.907 592.909 314.88V285.44H586.749V275.84H592.909C592.589 275.04 592.322 274.213 592.109 273.36C591.949 272.507 591.869 271.6 591.869 270.64C591.869 268.667 592.215 266.933 592.909 265.44C593.602 263.893 594.589 262.587 595.869 261.52C597.149 260.453 598.642 259.653 600.349 259.12C602.109 258.533 604.029 258.24 606.109 258.24C609.042 258.24 611.362 258.72 613.069 259.68C614.829 260.64 616.349 261.84 617.629 263.28L611.549 269.68ZM634.498 275.04C640.845 275.04 645.458 276.853 648.338 280.48C651.271 284.107 652.738 289.12 652.738 295.52C652.738 298.56 652.338 301.387 651.538 304C650.791 306.56 649.618 308.8 648.018 310.72C646.471 312.587 644.498 314.08 642.098 315.2C639.751 316.267 637.005 316.8 633.858 316.8C630.658 316.8 627.885 316.347 625.538 315.44C623.245 314.48 621.351 313.12 619.858 311.36C618.418 309.6 617.325 307.467 616.578 304.96C615.885 302.4 615.538 299.547 615.538 296.4C615.538 293.36 615.911 290.533 616.658 287.92C617.458 285.307 618.631 283.067 620.178 281.2C621.778 279.28 623.751 277.787 626.098 276.72C628.498 275.6 631.298 275.04 634.498 275.04ZM633.778 284.56C632.818 284.56 632.018 284.853 631.378 285.44C630.738 285.973 630.231 286.747 629.858 287.76C629.538 288.72 629.298 289.867 629.138 291.2C629.031 292.533 628.978 293.973 628.978 295.52C628.978 297.12 629.058 298.64 629.218 300.08C629.378 301.52 629.645 302.773 630.018 303.84C630.445 304.907 631.031 305.76 631.778 306.4C632.525 306.987 633.458 307.28 634.578 307.28C635.538 307.28 636.338 306.987 636.978 306.4C637.618 305.813 638.098 305.04 638.418 304.08C638.791 303.067 639.031 301.893 639.138 300.56C639.298 299.227 639.378 297.813 639.378 296.32C639.378 294.667 639.298 293.147 639.138 291.76C638.978 290.32 638.685 289.067 638.258 288C637.885 286.933 637.325 286.107 636.578 285.52C635.831 284.88 634.898 284.56 633.778 284.56ZM680.301 287.36C679.714 287.36 679.074 287.52 678.381 287.84C677.687 288.16 677.021 288.667 676.381 289.36C675.741 290 675.207 290.853 674.781 291.92C674.354 292.933 674.141 294.16 674.141 295.6V316H661.501V295.2C661.501 292 661.261 289.36 660.781 287.28C660.354 285.147 659.847 283.413 659.261 282.08C658.621 280.587 657.901 279.387 657.101 278.48L667.261 275.28C667.687 275.813 668.141 276.427 668.621 277.12C668.994 277.707 669.394 278.453 669.821 279.36C670.247 280.267 670.594 281.307 670.861 282.48C672.194 279.92 673.767 278.08 675.581 276.96C677.447 275.84 679.634 275.28 682.141 275.28C683.261 275.28 684.247 275.387 685.101 275.6C686.007 275.76 686.754 275.947 687.341 276.16L684.061 288.24C683.687 288.027 683.181 287.84 682.541 287.68C681.954 287.467 681.207 287.36 680.301 287.36ZM714.566 261.84C715.046 261.84 716.006 261.84 717.446 261.84C718.886 261.787 720.486 261.76 722.246 261.76C724.006 261.76 725.713 261.76 727.366 261.76C729.02 261.707 730.3 261.68 731.206 261.68C738.033 261.68 743.153 262.987 746.566 265.6C749.98 268.213 751.686 272.08 751.686 277.2C751.686 280.613 750.86 283.44 749.206 285.68C747.553 287.867 745.313 289.573 742.486 290.8C744.086 291.707 745.5 292.907 746.726 294.4C747.953 295.893 749.126 297.707 750.246 299.84C751.366 301.92 752.486 304.32 753.606 307.04C754.78 309.76 756.06 312.747 757.446 316H743.286C741.58 312.267 740.14 308.987 738.966 306.16C737.793 303.28 736.7 300.88 735.686 298.96C734.673 296.987 733.66 295.52 732.646 294.56C731.686 293.547 730.513 293.04 729.126 293.04H727.766V316H714.566V261.84ZM727.766 284.8H731.126C732.993 284.8 734.566 284.24 735.846 283.12C737.18 281.947 737.846 280.133 737.846 277.68C737.846 276.667 737.713 275.733 737.446 274.88C737.233 273.973 736.86 273.2 736.326 272.56C735.793 271.867 735.046 271.333 734.086 270.96C733.18 270.533 732.06 270.32 730.726 270.32H727.766V284.8ZM758.894 297.04C758.894 293.467 759.401 290.32 760.414 287.6C761.481 284.827 762.921 282.533 764.734 280.72C766.601 278.853 768.761 277.44 771.214 276.48C773.668 275.52 776.334 275.04 779.214 275.04C781.721 275.04 783.854 275.36 785.614 276C787.374 276.587 788.814 277.44 789.934 278.56C791.054 279.627 791.881 280.907 792.414 282.4C792.948 283.84 793.214 285.413 793.214 287.12C793.214 289.04 792.734 290.853 791.774 292.56C790.814 294.267 789.428 295.787 787.614 297.12C785.854 298.4 783.694 299.467 781.134 300.32C778.628 301.173 775.774 301.733 772.574 302C772.948 303.6 773.614 304.907 774.574 305.92C775.588 306.88 777.108 307.36 779.134 307.36C780.308 307.36 781.561 307.227 782.894 306.96C784.228 306.693 785.454 306.4 786.574 306.08C787.908 305.707 789.214 305.28 790.494 304.8L792.894 313.12C791.454 313.813 789.881 314.427 788.174 314.96C786.734 315.387 785.054 315.787 783.134 316.16C781.268 316.533 779.268 316.72 777.134 316.72C773.881 316.72 771.081 316.24 768.734 315.28C766.441 314.32 764.548 312.987 763.054 311.28C761.614 309.573 760.548 307.52 759.854 305.12C759.214 302.667 758.894 299.973 758.894 297.04ZM777.614 284.08C776.601 284.08 775.721 284.373 774.974 284.96C774.281 285.547 773.721 286.32 773.294 287.28C772.868 288.24 772.548 289.307 772.334 290.48C772.121 291.653 771.988 292.8 771.934 293.92C773.534 293.867 774.868 293.627 775.934 293.2C777.054 292.773 777.961 292.24 778.654 291.6C779.348 290.96 779.854 290.267 780.174 289.52C780.494 288.773 780.654 288.08 780.654 287.44C780.654 286.427 780.361 285.627 779.774 285.04C779.241 284.4 778.521 284.08 777.614 284.08ZM833.976 296.72C833.976 299.92 834.189 302.587 834.616 304.72C835.042 306.853 835.549 308.56 836.136 309.84C836.776 311.387 837.522 312.587 838.376 313.44L828.216 316.64C827.629 316.107 827.096 315.44 826.616 314.64C826.189 313.947 825.762 313.12 825.336 312.16C824.962 311.147 824.642 309.973 824.376 308.64C823.469 311.147 822.136 313.093 820.376 314.48C818.616 315.813 816.296 316.48 813.416 316.48C810.802 316.48 808.509 316 806.536 315.04C804.616 314.08 803.016 312.747 801.736 311.04C800.456 309.28 799.496 307.173 798.856 304.72C798.269 302.267 797.976 299.547 797.976 296.56C797.976 293.52 798.456 290.693 799.416 288.08C800.429 285.467 801.816 283.227 803.576 281.36C805.336 279.44 807.442 277.947 809.896 276.88C812.349 275.813 815.069 275.28 818.056 275.28C819.709 275.28 821.469 275.413 823.336 275.68C825.202 275.893 826.909 276.16 828.456 276.48C830.002 276.747 831.282 277.013 832.296 277.28C833.362 277.493 833.922 277.6 833.976 277.6V296.72ZM815.496 307.2C816.296 307.2 817.042 306.853 817.736 306.16C818.482 305.467 819.122 304.533 819.656 303.36C820.189 302.187 820.589 300.853 820.856 299.36C821.176 297.813 821.336 296.187 821.336 294.48V285.2C820.962 285.04 820.429 284.907 819.736 284.8C819.096 284.64 818.536 284.56 818.056 284.56C816.776 284.56 815.709 284.853 814.856 285.44C814.002 285.973 813.309 286.747 812.776 287.76C812.296 288.72 811.949 289.893 811.736 291.28C811.522 292.667 811.416 294.16 811.416 295.76C811.416 297.253 811.442 298.693 811.496 300.08C811.549 301.413 811.709 302.613 811.976 303.68C812.296 304.747 812.722 305.6 813.256 306.24C813.789 306.88 814.536 307.2 815.496 307.2ZM872.531 316.64L872.051 316.08C871.731 315.76 871.358 315.253 870.931 314.56C870.505 313.867 870.078 313.04 869.651 312.08C869.225 311.067 868.905 309.92 868.691 308.64C867.785 311.147 866.451 313.093 864.691 314.48C862.931 315.813 860.611 316.48 857.731 316.48C855.118 316.48 852.825 316 850.851 315.04C848.931 314.08 847.331 312.747 846.051 311.04C844.771 309.28 843.811 307.173 843.171 304.72C842.585 302.267 842.291 299.547 842.291 296.56C842.291 293.52 842.771 290.693 843.731 288.08C844.745 285.467 846.131 283.227 847.891 281.36C849.651 279.44 851.758 277.947 854.211 276.88C856.665 275.813 859.385 275.28 862.371 275.28C862.851 275.28 863.358 275.307 863.891 275.36C864.478 275.413 865.065 275.467 865.651 275.52V258.08L878.291 260.16V296.72C878.291 299.867 878.505 302.507 878.931 304.64C879.411 306.773 879.918 308.507 880.451 309.84C880.985 311.12 881.491 312.027 881.971 312.56L882.691 313.44L872.531 316.64ZM859.811 307.2C860.611 307.2 861.358 306.853 862.051 306.16C862.798 305.467 863.438 304.533 863.971 303.36C864.505 302.187 864.905 300.853 865.171 299.36C865.491 297.813 865.651 296.187 865.651 294.48V285.2C865.278 285.04 864.745 284.907 864.051 284.8C863.411 284.64 862.851 284.56 862.371 284.56C861.091 284.56 860.025 284.853 859.171 285.44C858.318 285.973 857.625 286.747 857.091 287.76C856.611 288.72 856.265 289.893 856.051 291.28C855.838 292.667 855.731 294.16 855.731 295.76C855.731 297.253 855.758 298.693 855.811 300.08C855.865 301.413 856.025 302.613 856.291 303.68C856.611 304.747 857.038 305.6 857.571 306.24C858.105 306.88 858.851 307.2 859.811 307.2ZM898.767 316.32C895.727 316.32 893.274 315.547 891.407 314C889.54 312.4 888.607 310.16 888.607 307.28V275.84H901.247V303.68C901.247 304.907 901.434 305.733 901.807 306.16C902.18 306.587 902.74 306.8 903.487 306.8C903.914 306.8 904.34 306.773 904.767 306.72C905.194 306.613 905.46 306.533 905.567 306.48L906.687 314.4C906.634 314.453 906.394 314.587 905.967 314.8C905.54 314.96 904.98 315.173 904.287 315.44C903.594 315.653 902.767 315.84 901.807 316C900.847 316.213 899.834 316.32 898.767 316.32ZM895.087 256.56C897.327 256.56 899.034 257.227 900.207 258.56C901.38 259.893 901.967 261.573 901.967 263.6C901.967 265.68 901.354 267.413 900.127 268.8C898.954 270.187 897.167 270.88 894.767 270.88C892.527 270.88 890.794 270.213 889.567 268.88C888.394 267.493 887.807 265.867 887.807 264C887.807 261.867 888.42 260.107 889.647 258.72C890.874 257.28 892.687 256.56 895.087 256.56ZM935.739 316V291.04C935.739 289.173 935.499 287.68 935.019 286.56C934.593 285.387 933.766 284.8 932.539 284.8C931.046 284.8 929.659 285.787 928.379 287.76C927.099 289.68 926.459 292.4 926.459 295.92V316H913.819V295.2C913.819 292 913.579 289.36 913.099 287.28C912.673 285.147 912.166 283.413 911.579 282.08C910.939 280.587 910.219 279.387 909.419 278.48L919.579 275.28C920.059 275.813 920.539 276.427 921.019 277.12C921.446 277.707 921.846 278.48 922.219 279.44C922.646 280.347 922.993 281.387 923.259 282.56C924.646 280.053 926.539 278.213 928.939 277.04C931.393 275.867 934.059 275.28 936.939 275.28C941.099 275.28 944.059 276.56 945.819 279.12C947.579 281.627 948.459 284.987 948.459 289.2V316H935.739ZM964.191 320.08C966.537 320.88 968.564 321.493 970.271 321.92C972.031 322.4 973.897 322.64 975.871 322.64C978.004 322.64 979.711 322.027 980.991 320.8C982.324 319.573 982.991 317.813 982.991 315.52C982.991 313.067 982.617 310.88 981.871 308.96C980.964 311.36 979.631 313.227 977.871 314.56C976.111 315.84 973.817 316.48 970.991 316.48C968.377 316.48 966.084 316 964.111 315.04C962.191 314.08 960.591 312.747 959.311 311.04C958.031 309.28 957.071 307.173 956.431 304.72C955.844 302.267 955.551 299.547 955.551 296.56C955.551 293.52 956.031 290.693 956.991 288.08C958.004 285.467 959.391 283.227 961.151 281.36C962.911 279.44 965.017 277.947 967.471 276.88C969.924 275.813 972.644 275.28 975.631 275.28C977.231 275.28 978.884 275.387 980.591 275.6C982.351 275.813 983.977 276.053 985.471 276.32C987.017 276.587 988.351 276.853 989.471 277.12C990.644 277.333 991.417 277.493 991.791 277.6L991.471 297.52C991.471 299.227 991.604 300.827 991.871 302.32C992.191 303.76 992.511 305.2 992.831 306.64C993.204 308.027 993.551 309.467 993.871 310.96C994.191 312.453 994.351 314.053 994.351 315.76C994.351 321.36 992.751 325.653 989.551 328.64C986.404 331.68 982.111 333.2 976.671 333.2C974.217 333.2 971.657 332.907 968.991 332.32C966.324 331.733 963.737 330.907 961.231 329.84L964.191 320.08ZM973.071 307.2C973.924 307.2 974.697 306.853 975.391 306.16C976.084 305.413 976.697 304.427 977.231 303.2C977.764 301.973 978.164 300.56 978.431 298.96C978.751 297.36 978.911 295.68 978.911 293.92V285.2C978.537 285.04 978.004 284.907 977.311 284.8C976.671 284.64 976.111 284.56 975.631 284.56C974.351 284.56 973.284 284.853 972.431 285.44C971.577 285.973 970.884 286.747 970.351 287.76C969.871 288.72 969.524 289.893 969.311 291.28C969.097 292.667 968.991 294.16 968.991 295.76C968.991 297.253 969.017 298.693 969.071 300.08C969.124 301.413 969.284 302.613 969.551 303.68C969.871 304.747 970.297 305.6 970.831 306.24C971.364 306.88 972.111 307.2 973.071 307.2Z" fill="white"/>
<path fill-rule="evenodd" clip-rule="evenodd" d="M953.103 249.914C953.224 239.121 951.825 228.231 950.392 217.686C950.076 215.417 948.01 213.786 945.827 214.202C943.601 214.463 942.062 216.557 942.336 218.67C943.734 228.887 945.128 239.441 944.986 249.734C944.945 251.931 946.742 253.804 948.989 253.875C951.233 253.946 953.061 252.111 953.103 249.914Z" fill="white"/>
<path fill-rule="evenodd" clip-rule="evenodd" d="M1001.11 269.667C1013.23 249.103 1022.68 227.066 1035.33 206.697C1036.53 204.863 1035.94 202.33 1034.05 201.156C1032.15 199.983 1029.63 200.491 1028.47 202.482C1015.78 222.864 1006.28 244.913 994.108 265.491C992.988 267.472 993.638 269.987 995.574 271.15C997.465 272.156 999.986 271.649 1001.11 269.667Z" fill="white"/>
<path fill-rule="evenodd" clip-rule="evenodd" d="M1072.49 282.99C1063.2 285.983 1053.91 288.976 1044.62 291.969C1042.46 292.547 1041.3 294.877 1042 297.045C1042.69 299.212 1044.95 300.288 1047.1 299.71C1056.41 296.712 1065.71 293.716 1075.01 290.719C1077.13 289.985 1078.28 287.659 1077.57 285.494C1076.91 283.486 1074.6 282.256 1072.49 282.99Z" fill="white"/>
<path d="M-16.0001 197C143.058 197 272 68.058 272 -91C272 -250.058 143.058 -379 -16.0001 -379C-175.058 -379 -304 -250.058 -304 -91C-304 68.058 -175.058 197 -16.0001 197Z" fill="url(#paint0_linear_2167_10235)"/>
<path d="M1260 877C1419.06 877 1548 748.058 1548 589C1548 429.942 1419.06 301 1260 301C1100.94 301 972 429.942 972 589C972 748.058 1100.94 877 1260 877Z" fill="url(#paint1_linear_2167_10235)"/>
</g>
<defs>
<linearGradient id="paint0_linear_2167_10235" x1="-16.0008" y1="197" x2="-16.0008" y2="-378.985" gradientUnits="userSpaceOnUse">
<stop stop-color="#B8ACF1" stop-opacity="0"/>
<stop offset="1" stop-color="#B8ACF1"/>
</linearGradient>
<linearGradient id="paint1_linear_2167_10235" x1="1260" y1="877" x2="1260" y2="301.015" gradientUnits="userSpaceOnUse">
<stop stop-color="#B8ACF1" stop-opacity="0"/>
<stop offset="1" stop-color="#B8ACF1" stop-opacity="0.18"/>
</linearGradient>
<clipPath id="clip0_2167_10235">
<rect width="1280" height="430" fill="white"/>
</clipPath>
</defs>
</svg>
