<svg width="888" height="639" viewBox="0 0 888 639" fill="none" xmlns="http://www.w3.org/2000/svg">
<rect x="0.5" width="240.86" height="66.8721" rx="16" fill="#F5F4FF"/>
<path d="M56.8508 43.8055C55.2594 43.8055 53.8858 43.4171 52.7301 42.6403C51.5744 41.8635 50.684 40.8215 50.0588 39.5143C49.4431 38.1976 49.1352 36.7388 49.1352 35.1379V23.5431H51.1245V35.1379C51.1245 36.3504 51.3471 37.4634 51.7923 38.477C52.2375 39.4906 52.8864 40.3005 53.739 40.9068C54.5915 41.5131 55.6288 41.8162 56.8508 41.8162C58.1012 41.8162 59.1479 41.5131 59.991 40.9068C60.8436 40.2911 61.4877 39.4764 61.9235 38.4628C62.3592 37.4492 62.5771 36.3409 62.5771 35.1379V23.5431H64.5664V35.1379C64.5664 36.3409 64.3864 37.4682 64.0264 38.5197C63.6759 39.5617 63.1644 40.4805 62.4918 41.2762C61.8287 42.072 61.0188 42.6924 60.0621 43.1376C59.1148 43.5829 58.0444 43.8055 56.8508 43.8055ZM80.1752 34.6405V43.436H78.1859V35.0384C78.1859 34.2616 77.9965 33.5559 77.6175 32.9212C77.2386 32.2865 76.7318 31.7798 76.0972 31.4008C75.4625 31.0219 74.7568 30.8325 73.98 30.8325C73.2127 30.8325 72.507 31.0219 71.8628 31.4008C71.2281 31.7798 70.7213 32.2865 70.3424 32.9212C69.9635 33.5559 69.7741 34.2616 69.7741 35.0384V43.436H67.7848V29.2268H69.7741V31.1877C70.2761 30.4678 70.9297 29.8947 71.7349 29.4684C72.5401 29.0421 73.4164 28.829 74.3636 28.829C75.4341 28.829 76.4098 29.0895 77.2907 29.6105C78.1717 30.1315 78.8727 30.8325 79.3937 31.7134C79.9147 32.5944 80.1752 33.5701 80.1752 34.6405ZM94.4375 22.1222H96.4268V43.436H94.4375V40.7789C93.9449 41.6883 93.2676 42.4224 92.4055 42.9813C91.553 43.5308 90.5394 43.8055 89.3648 43.8055C88.3322 43.8055 87.366 43.6113 86.4661 43.2229C85.5662 42.8345 84.7705 42.2993 84.079 41.6173C83.3969 40.9257 82.8617 40.13 82.4733 39.2301C82.0849 38.3302 81.8907 37.364 81.8907 36.3314C81.8907 35.2989 82.0849 34.3327 82.4733 33.4328C82.8617 32.5234 83.3969 31.7277 84.079 31.0456C84.7705 30.3541 85.5662 29.8141 86.4661 29.4258C87.366 29.0374 88.3322 28.8432 89.3648 28.8432C90.5394 28.8432 91.553 29.1226 92.4055 29.6815C93.2676 30.2309 93.9449 30.9556 94.4375 31.8555V22.1222ZM89.379 41.873C90.3926 41.873 91.2641 41.6267 91.9935 41.1341C92.7229 40.6321 93.2818 39.9595 93.6702 39.1164C94.068 38.2734 94.267 37.345 94.267 36.3314C94.267 35.2894 94.068 34.3516 93.6702 33.518C93.2723 32.6749 92.7087 32.0071 91.9793 31.5145C91.2499 31.0219 90.3831 30.7756 89.379 30.7756C88.3749 30.7756 87.4607 31.0267 86.6366 31.5287C85.8125 32.0213 85.1541 32.6891 84.6615 33.5322C84.1689 34.3753 83.9227 35.3084 83.9227 36.3314C83.9227 37.364 84.1737 38.3018 84.6757 39.1449C85.1778 39.9785 85.8409 40.6416 86.665 41.1341C87.4986 41.6267 88.4033 41.873 89.379 41.873ZM105.98 43.8055C104.673 43.8055 103.479 43.4692 102.399 42.7966C101.329 42.1241 100.471 41.2241 99.8272 40.0969C99.1925 38.9601 98.8752 37.705 98.8752 36.3314C98.8752 35.2894 99.0599 34.3185 99.4293 33.4185C99.7988 32.5092 100.306 31.7134 100.95 31.0314C101.603 30.3399 102.361 29.7999 103.223 29.4115C104.085 29.0232 105.004 28.829 105.98 28.829C107.031 28.829 107.997 29.0374 108.878 29.4542C109.769 29.871 110.531 30.4536 111.166 31.2019C111.81 31.9503 112.293 32.8265 112.615 33.8306C112.947 34.8347 113.084 35.9194 113.028 37.0845H100.978C101.092 37.9844 101.376 38.7896 101.831 39.5001C102.295 40.2105 102.882 40.7742 103.593 41.191C104.313 41.5983 105.108 41.8067 105.98 41.8162C106.927 41.8162 107.78 41.5699 108.537 41.0773C109.305 40.5847 109.92 39.9074 110.385 39.0454L112.402 39.5143C111.834 40.7742 110.977 41.8067 109.83 42.6119C108.684 43.4076 107.401 43.8055 105.98 43.8055ZM100.921 35.4789H111.024C110.958 34.5979 110.688 33.7927 110.214 33.0633C109.75 32.3244 109.148 31.7371 108.41 31.3014C107.671 30.8562 106.861 30.6335 105.98 30.6335C105.099 30.6335 104.294 30.8514 103.564 31.2872C102.835 31.7134 102.238 32.296 101.774 33.0349C101.31 33.7643 101.026 34.579 100.921 35.4789ZM115.463 43.436V29.2268H117.453V31.1877C117.955 30.4678 118.608 29.8947 119.413 29.4684C120.219 29.0421 121.095 28.829 122.042 28.829C122.592 28.829 123.122 28.9 123.634 29.0421L122.824 31.0172C122.426 30.894 122.037 30.8325 121.659 30.8325C120.891 30.8325 120.186 31.0219 119.541 31.4008C118.907 31.7798 118.4 32.2865 118.021 32.9212C117.642 33.5559 117.453 34.2616 117.453 35.0384V43.436H115.463ZM129.817 43.706C129.04 43.6871 128.282 43.545 127.544 43.2797C126.805 43.0145 126.161 42.6545 125.611 42.1998C125.062 41.7451 124.669 41.2289 124.432 40.651L126.151 39.9122C126.303 40.2816 126.582 40.6226 126.989 40.9352C127.406 41.2383 127.88 41.4846 128.41 41.6741C128.941 41.8541 129.467 41.9441 129.988 41.9441C130.565 41.9441 131.105 41.8493 131.607 41.6599C132.109 41.4704 132.517 41.2005 132.829 40.85C133.151 40.49 133.313 40.0685 133.313 39.5853C133.313 39.0643 133.142 38.657 132.801 38.3633C132.46 38.0602 132.029 37.8234 131.508 37.6529C130.987 37.4729 130.452 37.3024 129.902 37.1414C128.898 36.8666 128.012 36.5635 127.245 36.232C126.478 35.9004 125.876 35.4789 125.441 34.9673C125.014 34.4463 124.801 33.7785 124.801 32.9639C124.801 32.1018 125.043 31.3582 125.526 30.733C126.018 30.0983 126.658 29.6105 127.444 29.2695C128.24 28.919 129.088 28.7437 129.988 28.7437C131.143 28.7437 132.195 28.9947 133.142 29.4968C134.099 29.9989 134.79 30.6667 135.217 31.5003L133.611 32.4523C133.44 32.0639 133.17 31.7277 132.801 31.4435C132.432 31.1593 132.01 30.9367 131.536 30.7756C131.072 30.6146 130.599 30.5293 130.115 30.5199C129.509 30.5104 128.946 30.6004 128.425 30.7898C127.904 30.9698 127.482 31.2398 127.16 31.5998C126.847 31.9597 126.691 32.4002 126.691 32.9212C126.691 33.4422 126.847 33.8401 127.16 34.1148C127.473 34.38 127.894 34.5979 128.425 34.7684C128.965 34.9295 129.571 35.1189 130.243 35.3368C131.105 35.6115 131.915 35.9241 132.673 36.2746C133.431 36.6251 134.042 37.0608 134.506 37.5818C134.97 38.1028 135.198 38.7612 135.188 39.5569C135.188 40.4095 134.932 41.1531 134.421 41.7878C133.909 42.4224 133.246 42.9103 132.432 43.2513C131.617 43.5829 130.745 43.7344 129.817 43.706ZM144.898 31.2161H141.502L141.488 43.436H139.499L139.513 31.2161H136.941V29.2268H139.513L139.499 24.7651H141.488L141.502 29.2268H144.898V31.2161ZM158.725 29.2268H160.715V43.436H158.725L158.654 40.7931C158.19 41.693 157.541 42.4224 156.708 42.9813C155.874 43.5308 154.879 43.8055 153.724 43.8055C152.682 43.8055 151.706 43.6113 150.797 43.2229C149.887 42.825 149.087 42.2804 148.395 41.5888C147.704 40.8973 147.164 40.0969 146.776 39.1875C146.387 38.2781 146.193 37.3024 146.193 36.2604C146.193 35.2373 146.382 34.2758 146.761 33.3759C147.15 32.476 147.68 31.685 148.353 31.003C149.035 30.3209 149.821 29.7905 150.711 29.4115C151.611 29.0232 152.573 28.829 153.596 28.829C154.78 28.829 155.813 29.1132 156.694 29.6815C157.575 30.2404 158.275 30.9746 158.797 31.884L158.725 29.2268ZM153.681 41.873C154.695 41.873 155.566 41.6267 156.296 41.1341C157.025 40.6321 157.584 39.9595 157.972 39.1164C158.37 38.2734 158.569 37.345 158.569 36.3314C158.569 35.2894 158.37 34.3516 157.972 33.518C157.575 32.6749 157.011 32.0071 156.281 31.5145C155.552 31.0219 154.685 30.7756 153.681 30.7756C152.677 30.7756 151.758 31.0267 150.925 31.5287C150.1 32.0213 149.442 32.6891 148.95 33.5322C148.466 34.3753 148.225 35.3084 148.225 36.3314C148.225 37.364 148.476 38.3018 148.978 39.1449C149.48 39.9785 150.143 40.6416 150.967 41.1341C151.801 41.6267 152.705 41.873 153.681 41.873ZM175.949 34.6405V43.436H173.959V35.0384C173.959 34.2616 173.77 33.5559 173.391 32.9212C173.012 32.2865 172.505 31.7798 171.871 31.4008C171.236 31.0219 170.53 30.8325 169.753 30.8325C168.986 30.8325 168.28 31.0219 167.636 31.4008C167.002 31.7798 166.495 32.2865 166.116 32.9212C165.737 33.5559 165.547 34.2616 165.547 35.0384V43.436H163.558V29.2268H165.547V31.1877C166.049 30.4678 166.703 29.8947 167.508 29.4684C168.313 29.0421 169.19 28.829 170.137 28.829C171.207 28.829 172.183 29.0895 173.064 29.6105C173.945 30.1315 174.646 30.8325 175.167 31.7134C175.688 32.5944 175.949 33.5701 175.949 34.6405ZM190.211 22.1222H192.2V43.436H190.211V40.7789C189.718 41.6883 189.041 42.4224 188.179 42.9813C187.326 43.5308 186.313 43.8055 185.138 43.8055C184.106 43.8055 183.139 43.6113 182.239 43.2229C181.34 42.8345 180.544 42.2993 179.852 41.6173C179.17 40.9257 178.635 40.13 178.247 39.2301C177.858 38.3302 177.664 37.364 177.664 36.3314C177.664 35.2989 177.858 34.3327 178.247 33.4328C178.635 32.5234 179.17 31.7277 179.852 31.0456C180.544 30.3541 181.34 29.8141 182.239 29.4258C183.139 29.0374 184.106 28.8432 185.138 28.8432C186.313 28.8432 187.326 29.1226 188.179 29.6815C189.041 30.2309 189.718 30.9556 190.211 31.8555V22.1222ZM185.152 41.873C186.166 41.873 187.037 41.6267 187.767 41.1341C188.496 40.6321 189.055 39.9595 189.444 39.1164C189.841 38.2734 190.04 37.345 190.04 36.3314C190.04 35.2894 189.841 34.3516 189.444 33.518C189.046 32.6749 188.482 32.0071 187.753 31.5145C187.023 31.0219 186.156 30.7756 185.152 30.7756C184.148 30.7756 183.234 31.0267 182.41 31.5287C181.586 32.0213 180.927 32.6891 180.435 33.5322C179.942 34.3753 179.696 35.3084 179.696 36.3314C179.696 37.364 179.947 38.3018 180.449 39.1449C180.951 39.9785 181.614 40.6416 182.438 41.1341C183.272 41.6267 184.177 41.873 185.152 41.873Z" fill="#151515"/>
<rect x="162.035" y="133.744" width="240.86" height="66.8721" rx="16" fill="#F5F4FF"/>
<path d="M226.67 177.18V157.287H233.42C234.481 157.287 235.437 157.548 236.29 158.069C237.143 158.58 237.82 159.277 238.322 160.158C238.824 161.029 239.075 162.009 239.075 163.099C239.075 164.075 238.876 164.96 238.478 165.756C238.08 166.552 237.536 167.21 236.844 167.731C236.162 168.252 235.39 168.598 234.528 168.768L239.388 177.18H237.086L232.297 168.925H228.66V177.18H226.67ZM228.66 166.935H233.249C233.95 166.935 234.59 166.765 235.167 166.424C235.755 166.073 236.219 165.604 236.56 165.017C236.91 164.42 237.086 163.748 237.086 162.999C237.086 162.251 236.91 161.583 236.56 160.996C236.219 160.399 235.755 159.93 235.167 159.589C234.59 159.239 233.95 159.063 233.249 159.063H228.66V166.935ZM248.242 177.55C246.934 177.55 245.741 177.213 244.661 176.541C243.591 175.868 242.733 174.968 242.089 173.841C241.454 172.704 241.137 171.449 241.137 170.076C241.137 169.034 241.322 168.063 241.691 167.163C242.061 166.253 242.567 165.458 243.212 164.776C243.865 164.084 244.623 163.544 245.485 163.156C246.347 162.767 247.266 162.573 248.242 162.573C249.293 162.573 250.259 162.782 251.14 163.198C252.031 163.615 252.793 164.198 253.428 164.946C254.072 165.694 254.555 166.571 254.877 167.575C255.209 168.579 255.346 169.664 255.289 170.829H243.24C243.354 171.729 243.638 172.534 244.093 173.244C244.557 173.955 245.144 174.518 245.855 174.935C246.574 175.342 247.37 175.551 248.242 175.56C249.189 175.56 250.042 175.314 250.799 174.821C251.567 174.329 252.182 173.652 252.647 172.79L254.664 173.258C254.096 174.518 253.239 175.551 252.092 176.356C250.946 177.152 249.663 177.55 248.242 177.55ZM243.183 169.223H253.286C253.22 168.342 252.95 167.537 252.476 166.807C252.012 166.069 251.41 165.481 250.671 165.046C249.933 164.6 249.123 164.378 248.242 164.378C247.361 164.378 246.556 164.596 245.826 165.031C245.097 165.458 244.5 166.04 244.036 166.779C243.572 167.508 243.287 168.323 243.183 169.223ZM262.144 177.45C261.367 177.431 260.609 177.289 259.87 177.024C259.131 176.759 258.487 176.399 257.938 175.944C257.388 175.489 256.995 174.973 256.758 174.395L258.478 173.656C258.629 174.026 258.909 174.367 259.316 174.679C259.733 174.982 260.206 175.229 260.737 175.418C261.267 175.598 261.793 175.688 262.314 175.688C262.892 175.688 263.432 175.593 263.934 175.404C264.436 175.215 264.843 174.945 265.156 174.594C265.478 174.234 265.639 173.813 265.639 173.329C265.639 172.808 265.469 172.401 265.128 172.107C264.787 171.804 264.356 171.568 263.835 171.397C263.314 171.217 262.778 171.047 262.229 170.885C261.225 170.611 260.339 170.308 259.572 169.976C258.804 169.645 258.203 169.223 257.767 168.711C257.341 168.19 257.128 167.523 257.128 166.708C257.128 165.846 257.369 165.102 257.852 164.477C258.345 163.842 258.984 163.355 259.771 163.014C260.566 162.663 261.414 162.488 262.314 162.488C263.47 162.488 264.521 162.739 265.469 163.241C266.425 163.743 267.117 164.411 267.543 165.244L265.937 166.196C265.767 165.808 265.497 165.472 265.128 165.188C264.758 164.903 264.337 164.681 263.863 164.52C263.399 164.359 262.925 164.273 262.442 164.264C261.836 164.255 261.272 164.345 260.751 164.534C260.23 164.714 259.809 164.984 259.487 165.344C259.174 165.704 259.018 166.144 259.018 166.665C259.018 167.186 259.174 167.584 259.487 167.859C259.799 168.124 260.221 168.342 260.751 168.513C261.291 168.674 261.897 168.863 262.57 169.081C263.432 169.356 264.242 169.668 265 170.019C265.757 170.369 266.368 170.805 266.833 171.326C267.297 171.847 267.524 172.505 267.515 173.301C267.515 174.154 267.259 174.897 266.747 175.532C266.236 176.167 265.573 176.654 264.758 176.995C263.943 177.327 263.072 177.479 262.144 177.45ZM276.105 177.55C274.798 177.55 273.604 177.213 272.524 176.541C271.454 175.868 270.597 174.968 269.952 173.841C269.318 172.704 269 171.449 269 170.076C269 169.034 269.185 168.063 269.555 167.163C269.924 166.253 270.431 165.458 271.075 164.776C271.729 164.084 272.486 163.544 273.348 163.156C274.21 162.767 275.129 162.573 276.105 162.573C277.157 162.573 278.123 162.782 279.004 163.198C279.894 163.615 280.657 164.198 281.291 164.946C281.936 165.694 282.419 166.571 282.741 167.575C283.072 168.579 283.21 169.664 283.153 170.829H271.103C271.217 171.729 271.501 172.534 271.956 173.244C272.42 173.955 273.007 174.518 273.718 174.935C274.438 175.342 275.234 175.551 276.105 175.56C277.052 175.56 277.905 175.314 278.663 174.821C279.43 174.329 280.046 173.652 280.51 172.79L282.528 173.258C281.959 174.518 281.102 175.551 279.956 176.356C278.81 177.152 277.526 177.55 276.105 177.55ZM271.047 169.223H281.149C281.083 168.342 280.813 167.537 280.339 166.807C279.875 166.069 279.274 165.481 278.535 165.046C277.796 164.6 276.986 164.378 276.105 164.378C275.224 164.378 274.419 164.596 273.689 165.031C272.96 165.458 272.363 166.04 271.899 166.779C271.435 167.508 271.151 168.323 271.047 169.223ZM297.13 162.971H299.119V177.18H297.13L297.059 174.537C296.595 175.437 295.946 176.167 295.112 176.725C294.278 177.275 293.284 177.55 292.128 177.55C291.086 177.55 290.11 177.355 289.201 176.967C288.292 176.569 287.491 176.024 286.8 175.333C286.108 174.641 285.568 173.841 285.18 172.932C284.791 172.022 284.597 171.047 284.597 170.005C284.597 168.981 284.787 168.02 285.166 167.12C285.554 166.22 286.085 165.429 286.757 164.747C287.439 164.065 288.225 163.535 289.116 163.156C290.016 162.767 290.977 162.573 292 162.573C293.184 162.573 294.217 162.857 295.098 163.426C295.979 163.985 296.68 164.719 297.201 165.628L297.13 162.971ZM292.086 175.617C293.099 175.617 293.971 175.371 294.7 174.878C295.429 174.376 295.988 173.704 296.377 172.861C296.775 172.017 296.973 171.089 296.973 170.076C296.973 169.034 296.775 168.096 296.377 167.262C295.979 166.419 295.415 165.751 294.686 165.259C293.956 164.766 293.09 164.52 292.086 164.52C291.081 164.52 290.163 164.771 289.329 165.273C288.505 165.765 287.846 166.433 287.354 167.276C286.871 168.119 286.629 169.053 286.629 170.076C286.629 171.108 286.88 172.046 287.382 172.889C287.884 173.723 288.547 174.386 289.372 174.878C290.205 175.371 291.11 175.617 292.086 175.617ZM301.962 177.18V162.971H303.952V164.932C304.454 164.212 305.107 163.639 305.913 163.213C306.718 162.786 307.594 162.573 308.541 162.573C309.091 162.573 309.621 162.644 310.133 162.786L309.323 164.761C308.925 164.638 308.537 164.577 308.158 164.577C307.39 164.577 306.685 164.766 306.041 165.145C305.406 165.524 304.899 166.031 304.52 166.665C304.141 167.3 303.952 168.006 303.952 168.783V177.18H301.962ZM321.322 173.614L323.098 174.58C322.454 175.48 321.634 176.2 320.64 176.74C319.654 177.28 318.584 177.55 317.428 177.55C316.121 177.55 314.927 177.213 313.848 176.541C312.777 175.868 311.92 174.968 311.276 173.841C310.641 172.704 310.324 171.449 310.324 170.076C310.324 169.034 310.508 168.063 310.878 167.163C311.247 166.253 311.754 165.458 312.398 164.776C313.052 164.084 313.81 163.544 314.672 163.156C315.534 162.767 316.453 162.573 317.428 162.573C318.584 162.573 319.654 162.843 320.64 163.383C321.634 163.923 322.454 164.648 323.098 165.557L321.322 166.509C320.829 165.884 320.237 165.405 319.545 165.074C318.854 164.733 318.148 164.562 317.428 164.562C316.472 164.562 315.605 164.818 314.828 165.33C314.051 165.832 313.436 166.5 312.981 167.333C312.536 168.167 312.313 169.081 312.313 170.076C312.313 171.07 312.54 171.984 312.995 172.818C313.459 173.652 314.08 174.319 314.856 174.821C315.633 175.314 316.491 175.56 317.428 175.56C318.205 175.56 318.934 175.38 319.617 175.02C320.299 174.66 320.867 174.192 321.322 173.614ZM337.859 168.385V177.18H335.87V168.783C335.87 168.006 335.68 167.3 335.301 166.665C334.923 166.031 334.416 165.524 333.781 165.145C333.146 164.766 332.441 164.577 331.664 164.577C330.897 164.577 330.191 164.766 329.547 165.145C328.912 165.524 328.405 166.031 328.026 166.665C327.647 167.3 327.458 168.006 327.458 168.783V177.18H325.469V155.866H327.458V164.932C327.96 164.212 328.614 163.639 329.419 163.213C330.224 162.786 331.1 162.573 332.048 162.573C333.118 162.573 334.094 162.834 334.975 163.355C335.856 163.876 336.557 164.577 337.078 165.458C337.599 166.339 337.859 167.314 337.859 168.385Z" fill="#151515"/>
<rect x="323.57" y="279.872" width="240.86" height="66.8721" rx="16" fill="#F5F4FF"/>
<path d="M402.37 303.415H404.842L412.089 323.308H409.972L408.423 319.045H398.803L397.254 323.308H395.137L402.37 303.415ZM399.528 317.056H407.684L403.606 305.859L399.528 317.056ZM427.051 314.513V323.308H425.061V314.91C425.061 314.134 424.872 313.428 424.493 312.793C424.114 312.159 423.607 311.652 422.973 311.273C422.338 310.894 421.632 310.705 420.856 310.705C420.088 310.705 419.383 310.894 418.738 311.273C418.104 311.652 417.597 312.159 417.218 312.793C416.839 313.428 416.65 314.134 416.65 314.91V323.308H414.66V309.099H416.65V311.06C417.152 310.34 417.805 309.767 418.611 309.34C419.416 308.914 420.292 308.701 421.239 308.701C422.31 308.701 423.285 308.962 424.166 309.483C425.047 310.004 425.748 310.705 426.269 311.586C426.79 312.466 427.051 313.442 427.051 314.513ZM441.299 309.099H443.288V323.308H441.299L441.228 320.665C440.764 321.565 440.115 322.295 439.281 322.853C438.448 323.403 437.453 323.678 436.297 323.678C435.255 323.678 434.279 323.483 433.37 323.095C432.461 322.697 431.66 322.152 430.969 321.461C430.277 320.769 429.737 319.969 429.349 319.06C428.961 318.15 428.766 317.174 428.766 316.132C428.766 315.109 428.956 314.148 429.335 313.248C429.723 312.348 430.254 311.557 430.926 310.875C431.608 310.193 432.394 309.663 433.285 309.284C434.185 308.895 435.146 308.701 436.169 308.701C437.353 308.701 438.386 308.985 439.267 309.554C440.148 310.112 440.849 310.847 441.37 311.756L441.299 309.099ZM436.255 321.745C437.268 321.745 438.14 321.499 438.869 321.006C439.598 320.504 440.157 319.832 440.546 318.989C440.944 318.145 441.143 317.217 441.143 316.204C441.143 315.161 440.944 314.224 440.546 313.39C440.148 312.547 439.584 311.879 438.855 311.387C438.125 310.894 437.259 310.648 436.255 310.648C435.25 310.648 434.332 310.899 433.498 311.401C432.674 311.893 432.015 312.561 431.523 313.404C431.04 314.247 430.798 315.18 430.798 316.204C430.798 317.236 431.049 318.174 431.551 319.017C432.053 319.851 432.716 320.514 433.541 321.006C434.374 321.499 435.279 321.745 436.255 321.745ZM446.326 323.308V301.994H448.315V323.308H446.326ZM461.055 309.099H463.157L455.385 330.413H453.268L455.854 323.308L450.753 309.099H452.927L456.849 320.566L461.055 309.099ZM470.004 323.578C469.228 323.559 468.47 323.417 467.731 323.152C466.992 322.887 466.348 322.527 465.798 322.072C465.249 321.617 464.856 321.101 464.619 320.523L466.338 319.784C466.49 320.154 466.769 320.495 467.177 320.807C467.593 321.11 468.067 321.357 468.598 321.546C469.128 321.726 469.654 321.816 470.175 321.816C470.753 321.816 471.293 321.721 471.795 321.532C472.297 321.342 472.704 321.073 473.017 320.722C473.339 320.362 473.5 319.941 473.5 319.457C473.5 318.936 473.329 318.529 472.988 318.235C472.647 317.932 472.216 317.695 471.695 317.525C471.174 317.345 470.639 317.174 470.09 317.013C469.085 316.739 468.2 316.436 467.432 316.104C466.665 315.772 466.064 315.351 465.628 314.839C465.202 314.318 464.988 313.651 464.988 312.836C464.988 311.974 465.23 311.23 465.713 310.605C466.206 309.97 466.845 309.483 467.631 309.142C468.427 308.791 469.275 308.616 470.175 308.616C471.331 308.616 472.382 308.867 473.329 309.369C474.286 309.871 474.978 310.539 475.404 311.372L473.798 312.324C473.628 311.936 473.358 311.6 472.988 311.316C472.619 311.031 472.197 310.809 471.724 310.648C471.259 310.487 470.786 310.401 470.303 310.392C469.696 310.382 469.133 310.472 468.612 310.662C468.091 310.842 467.669 311.112 467.347 311.472C467.035 311.832 466.878 312.272 466.878 312.793C466.878 313.314 467.035 313.712 467.347 313.987C467.66 314.252 468.081 314.47 468.612 314.64C469.152 314.802 469.758 314.991 470.431 315.209C471.293 315.484 472.103 315.796 472.86 316.147C473.618 316.497 474.229 316.933 474.693 317.454C475.158 317.975 475.385 318.633 475.375 319.429C475.375 320.282 475.12 321.025 474.608 321.66C474.097 322.295 473.433 322.782 472.619 323.123C471.804 323.455 470.933 323.606 470.004 323.578ZM477.686 309.099H479.675V323.308H477.686V309.099ZM478.695 306.612C478.373 306.612 478.098 306.508 477.871 306.3C477.653 306.082 477.544 305.812 477.544 305.49C477.544 305.168 477.653 304.902 477.871 304.694C478.098 304.476 478.373 304.367 478.695 304.367C479.007 304.367 479.273 304.476 479.491 304.694C479.718 304.902 479.832 305.168 479.832 305.49C479.832 305.812 479.723 306.082 479.505 306.3C479.287 306.508 479.017 306.612 478.695 306.612ZM487.377 323.578C486.601 323.559 485.843 323.417 485.104 323.152C484.365 322.887 483.721 322.527 483.171 322.072C482.622 321.617 482.229 321.101 481.992 320.523L483.711 319.784C483.863 320.154 484.142 320.495 484.55 320.807C484.966 321.11 485.44 321.357 485.971 321.546C486.501 321.726 487.027 321.816 487.548 321.816C488.126 321.816 488.666 321.721 489.168 321.532C489.67 321.342 490.077 321.073 490.39 320.722C490.712 320.362 490.873 319.941 490.873 319.457C490.873 318.936 490.702 318.529 490.361 318.235C490.02 317.932 489.589 317.695 489.068 317.525C488.547 317.345 488.012 317.174 487.463 317.013C486.458 316.739 485.573 316.436 484.805 316.104C484.038 315.772 483.437 315.351 483.001 314.839C482.575 314.318 482.361 313.651 482.361 312.836C482.361 311.974 482.603 311.23 483.086 310.605C483.579 309.97 484.218 309.483 485.004 309.142C485.8 308.791 486.648 308.616 487.548 308.616C488.703 308.616 489.755 308.867 490.702 309.369C491.659 309.871 492.351 310.539 492.777 311.372L491.171 312.324C491.001 311.936 490.731 311.6 490.361 311.316C489.992 311.031 489.57 310.809 489.097 310.648C488.632 310.487 488.159 310.401 487.676 310.392C487.069 310.382 486.506 310.472 485.985 310.662C485.464 310.842 485.042 311.112 484.72 311.472C484.408 311.832 484.251 312.272 484.251 312.793C484.251 313.314 484.408 313.712 484.72 313.987C485.033 314.252 485.454 314.47 485.985 314.64C486.525 314.802 487.131 314.991 487.804 315.209C488.666 315.484 489.476 315.796 490.233 316.147C490.991 316.497 491.602 316.933 492.066 317.454C492.531 317.975 492.758 318.633 492.748 319.429C492.748 320.282 492.493 321.025 491.981 321.66C491.47 322.295 490.806 322.782 489.992 323.123C489.177 323.455 488.306 323.606 487.377 323.578Z" fill="#151515"/>
<rect x="485.104" y="426" width="240.86" height="66.8721" rx="16" fill="#F5F4FF"/>
<path d="M565.24 469.436V449.543H571.819C573.192 449.543 574.48 449.804 575.683 450.325C576.886 450.836 577.943 451.551 578.852 452.47C579.761 453.38 580.472 454.436 580.983 455.639C581.504 456.832 581.765 458.116 581.765 459.49C581.765 460.863 581.504 462.151 580.983 463.354C580.472 464.548 579.761 465.604 578.852 466.523C577.943 467.433 576.886 468.148 575.683 468.669C574.48 469.18 573.192 469.436 571.819 469.436H565.24ZM567.229 467.447H571.819C572.917 467.447 573.945 467.243 574.902 466.836C575.868 466.419 576.716 465.846 577.445 465.116C578.175 464.387 578.743 463.544 579.15 462.587C579.567 461.621 579.776 460.588 579.776 459.49C579.776 458.391 579.567 457.363 579.15 456.406C578.743 455.44 578.17 454.592 577.431 453.863C576.702 453.133 575.859 452.565 574.902 452.158C573.945 451.741 572.917 451.532 571.819 451.532H567.229V467.447ZM590.391 469.805C589.084 469.805 587.89 469.469 586.81 468.797C585.74 468.124 584.883 467.224 584.238 466.097C583.604 464.96 583.286 463.705 583.286 462.331C583.286 461.289 583.471 460.318 583.841 459.419C584.21 458.509 584.717 457.713 585.361 457.031C586.015 456.34 586.772 455.8 587.634 455.412C588.496 455.023 589.415 454.829 590.391 454.829C591.443 454.829 592.409 455.037 593.29 455.454C594.18 455.871 594.943 456.454 595.577 457.202C596.222 457.95 596.705 458.826 597.027 459.831C597.358 460.835 597.496 461.919 597.439 463.085H585.389C585.503 463.984 585.787 464.79 586.242 465.5C586.706 466.211 587.293 466.774 588.004 467.191C588.724 467.598 589.52 467.807 590.391 467.816C591.338 467.816 592.191 467.57 592.949 467.077C593.716 466.585 594.332 465.907 594.796 465.045L596.814 465.514C596.245 466.774 595.388 467.807 594.242 468.612C593.096 469.408 591.812 469.805 590.391 469.805ZM585.333 461.479H595.435C595.369 460.598 595.099 459.793 594.625 459.063C594.161 458.324 593.56 457.737 592.821 457.301C592.082 456.856 591.272 456.634 590.391 456.634C589.51 456.634 588.705 456.851 587.975 457.287C587.246 457.713 586.649 458.296 586.185 459.035C585.721 459.764 585.437 460.579 585.333 461.479ZM604.293 469.706C603.516 469.687 602.758 469.545 602.02 469.28C601.281 469.014 600.636 468.655 600.087 468.2C599.538 467.745 599.145 467.229 598.908 466.651L600.627 465.912C600.779 466.282 601.058 466.623 601.465 466.935C601.882 467.238 602.356 467.485 602.886 467.674C603.417 467.854 603.942 467.944 604.463 467.944C605.041 467.944 605.581 467.849 606.083 467.66C606.585 467.47 606.993 467.2 607.305 466.85C607.627 466.49 607.788 466.068 607.788 465.585C607.788 465.064 607.618 464.657 607.277 464.363C606.936 464.06 606.505 463.823 605.984 463.653C605.463 463.473 604.928 463.302 604.378 463.141C603.374 462.867 602.488 462.564 601.721 462.232C600.954 461.9 600.352 461.479 599.917 460.967C599.49 460.446 599.277 459.779 599.277 458.964C599.277 458.102 599.519 457.358 600.002 456.733C600.494 456.098 601.134 455.61 601.92 455.269C602.716 454.919 603.564 454.744 604.463 454.744C605.619 454.744 606.671 454.995 607.618 455.497C608.575 455.999 609.266 456.667 609.692 457.5L608.087 458.452C607.916 458.064 607.646 457.728 607.277 457.443C606.907 457.159 606.486 456.937 606.012 456.776C605.548 456.615 605.074 456.529 604.591 456.52C603.985 456.51 603.421 456.6 602.9 456.79C602.379 456.97 601.958 457.24 601.636 457.6C601.323 457.96 601.167 458.4 601.167 458.921C601.167 459.442 601.323 459.84 601.636 460.115C601.948 460.38 602.37 460.598 602.9 460.768C603.44 460.929 604.047 461.119 604.719 461.337C605.581 461.611 606.391 461.924 607.149 462.275C607.907 462.625 608.518 463.061 608.982 463.582C609.446 464.103 609.674 464.761 609.664 465.557C609.664 466.409 609.408 467.153 608.897 467.788C608.385 468.422 607.722 468.91 606.907 469.251C606.093 469.583 605.221 469.734 604.293 469.706ZM611.975 455.227H613.964V469.436H611.975V455.227ZM612.983 452.74C612.661 452.74 612.387 452.636 612.159 452.428C611.941 452.21 611.833 451.94 611.833 451.618C611.833 451.296 611.941 451.03 612.159 450.822C612.387 450.604 612.661 450.495 612.983 450.495C613.296 450.495 613.561 450.604 613.779 450.822C614.007 451.03 614.12 451.296 614.12 451.618C614.12 451.94 614.011 452.21 613.793 452.428C613.576 452.636 613.306 452.74 612.983 452.74ZM628.544 455.227H630.533V469.962C630.533 470.871 630.334 471.724 629.936 472.519C629.548 473.315 629.018 474.011 628.345 474.608C627.682 475.214 626.924 475.688 626.071 476.029C625.219 476.37 624.333 476.541 623.414 476.541C622.429 476.541 621.477 476.313 620.558 475.859C619.639 475.413 618.839 474.817 618.157 474.068C617.484 473.32 617.006 472.491 616.722 471.582L618.555 470.743C618.735 471.454 619.071 472.093 619.564 472.662C620.066 473.239 620.653 473.694 621.326 474.026C622.008 474.367 622.704 474.537 623.414 474.537C624.068 474.537 624.698 474.414 625.304 474.168C625.92 473.931 626.469 473.604 626.952 473.187C627.445 472.77 627.833 472.283 628.118 471.724C628.402 471.174 628.544 470.587 628.544 469.962V466.822C628.051 467.712 627.383 468.432 626.54 468.981C625.707 469.531 624.736 469.805 623.627 469.805C622.633 469.805 621.695 469.611 620.814 469.223C619.943 468.835 619.175 468.299 618.512 467.617C617.849 466.926 617.328 466.13 616.949 465.23C616.58 464.33 616.395 463.364 616.395 462.331C616.395 461.299 616.58 460.333 616.949 459.433C617.328 458.523 617.849 457.728 618.512 457.046C619.175 456.354 619.943 455.814 620.814 455.426C621.695 455.037 622.633 454.843 623.627 454.843C624.736 454.843 625.707 455.118 626.54 455.667C627.383 456.207 628.051 456.927 628.544 457.827V455.227ZM623.642 467.873C624.627 467.873 625.475 467.617 626.185 467.106C626.905 466.594 627.459 465.917 627.848 465.074C628.236 464.231 628.43 463.317 628.43 462.331C628.43 461.318 628.231 460.394 627.833 459.561C627.445 458.718 626.891 458.045 626.171 457.543C625.451 457.031 624.608 456.776 623.642 456.776C622.675 456.776 621.795 457.027 620.999 457.529C620.213 458.021 619.587 458.689 619.123 459.532C618.659 460.375 618.427 461.308 618.427 462.331C618.427 463.354 618.664 464.288 619.137 465.131C619.611 465.964 620.241 466.632 621.027 467.134C621.823 467.627 622.694 467.873 623.642 467.873ZM646.345 460.641V469.436H644.356V461.038C644.356 460.262 644.166 459.556 643.787 458.921C643.408 458.287 642.902 457.78 642.267 457.401C641.632 457.022 640.926 456.832 640.15 456.832C639.382 456.832 638.677 457.022 638.033 457.401C637.398 457.78 636.891 458.287 636.512 458.921C636.133 459.556 635.944 460.262 635.944 461.038V469.436H633.954V455.227H635.944V457.188C636.446 456.468 637.099 455.895 637.905 455.468C638.71 455.042 639.586 454.829 640.533 454.829C641.604 454.829 642.579 455.089 643.46 455.61C644.341 456.131 645.042 456.832 645.563 457.713C646.084 458.594 646.345 459.57 646.345 460.641Z" fill="#151515"/>
<rect x="646.64" y="572.128" width="240.86" height="66.8721" rx="16" fill="#F5F4FF"/>
<path d="M756.822 595.671V597.66H750.002V615.564H748.013V597.66H741.206V595.671H756.822ZM763.707 615.933C762.4 615.933 761.206 615.597 760.126 614.925C759.056 614.252 758.199 613.352 757.554 612.225C756.92 611.088 756.602 609.833 756.602 608.459C756.602 607.417 756.787 606.446 757.156 605.546C757.526 604.637 758.033 603.841 758.677 603.159C759.331 602.468 760.088 601.928 760.95 601.539C761.812 601.151 762.731 600.957 763.707 600.957C764.758 600.957 765.725 601.165 766.606 601.582C767.496 601.999 768.259 602.581 768.893 603.33C769.537 604.078 770.021 604.954 770.343 605.959C770.674 606.963 770.812 608.047 770.755 609.212H758.705C758.819 610.112 759.103 610.918 759.558 611.628C760.022 612.338 760.609 612.902 761.32 613.319C762.04 613.726 762.835 613.935 763.707 613.944C764.654 613.944 765.507 613.698 766.265 613.205C767.032 612.713 767.648 612.035 768.112 611.173L770.129 611.642C769.561 612.902 768.704 613.935 767.558 614.74C766.411 615.536 765.128 615.933 763.707 615.933ZM758.648 607.607H768.751C768.685 606.726 768.415 605.921 767.941 605.191C767.477 604.452 766.876 603.865 766.137 603.429C765.398 602.984 764.588 602.761 763.707 602.761C762.826 602.761 762.021 602.979 761.291 603.415C760.562 603.841 759.965 604.424 759.501 605.163C759.037 605.892 758.753 606.707 758.648 607.607ZM777.609 615.834C776.832 615.815 776.074 615.673 775.335 615.408C774.597 615.142 773.952 614.782 773.403 614.328C772.854 613.873 772.46 613.357 772.224 612.779L773.943 612.04C774.094 612.41 774.374 612.751 774.781 613.063C775.198 613.366 775.672 613.613 776.202 613.802C776.733 613.982 777.258 614.072 777.779 614.072C778.357 614.072 778.897 613.977 779.399 613.788C779.901 613.598 780.309 613.328 780.621 612.978C780.943 612.618 781.104 612.196 781.104 611.713C781.104 611.192 780.934 610.785 780.593 610.491C780.252 610.188 779.821 609.951 779.3 609.781C778.779 609.601 778.244 609.43 777.694 609.269C776.69 608.995 775.804 608.691 775.037 608.36C774.27 608.028 773.668 607.607 773.232 607.095C772.806 606.574 772.593 605.906 772.593 605.092C772.593 604.23 772.835 603.486 773.318 602.861C773.81 602.226 774.45 601.738 775.236 601.397C776.032 601.047 776.879 600.872 777.779 600.872C778.935 600.872 779.987 601.123 780.934 601.625C781.891 602.127 782.582 602.795 783.008 603.628L781.403 604.58C781.232 604.192 780.962 603.856 780.593 603.571C780.223 603.287 779.802 603.065 779.328 602.904C778.864 602.743 778.39 602.657 777.907 602.648C777.301 602.638 776.737 602.728 776.216 602.918C775.695 603.098 775.274 603.368 774.952 603.728C774.639 604.088 774.483 604.528 774.483 605.049C774.483 605.57 774.639 605.968 774.952 606.243C775.264 606.508 775.686 606.726 776.216 606.896C776.756 607.057 777.363 607.247 778.035 607.465C778.897 607.739 779.707 608.052 780.465 608.403C781.223 608.753 781.834 609.189 782.298 609.71C782.762 610.231 782.989 610.889 782.98 611.685C782.98 612.537 782.724 613.281 782.213 613.916C781.701 614.55 781.038 615.038 780.223 615.379C779.409 615.711 778.537 615.862 777.609 615.834ZM792.69 603.344H789.294L789.28 615.564H787.291L787.305 603.344H784.733V601.355H787.305L787.291 596.893H789.28L789.294 601.355H792.69V603.344Z" fill="#151515"/>
<path d="M241.36 33.436H336.551V133.744" stroke="#979797" stroke-width="2.3682" stroke-dasharray="4.74 4.74"/>
<path d="M402.896 174.61H498.086V274.918" stroke="#979797" stroke-width="2.3682" stroke-dasharray="4.74 4.74"/>
<path d="M564.43 307.116H659.62V407.424" stroke="#979797" stroke-width="2.3682" stroke-dasharray="4.74 4.74"/>
<path d="M731.734 459.436H826.925V559.744" stroke="#979797" stroke-width="2.3682" stroke-dasharray="4.74 4.74"/>
</svg>
