<svg width="24" height="24" viewBox="0 0 24 24" fill="none" xmlns="http://www.w3.org/2000/svg">
<path d="M15.2 15.68C16.9673 15.68 18.4 14.2473 18.4 12.48C18.4 10.7127 16.9673 9.28003 15.2 9.28003C13.4327 9.28003 12 10.7127 12 12.48C12 14.2473 13.4327 15.68 15.2 15.68Z" fill="#19BCFE"/>
<path fill-rule="evenodd" clip-rule="evenodd" d="M8.8001 22.0801C9.64879 22.0801 10.4627 21.7429 11.0628 21.1428C11.663 20.5427 12.0001 19.7287 12.0001 18.8801V15.6801H8.8001C7.9514 15.6801 7.13747 16.0172 6.53736 16.6173C5.93724 17.2174 5.6001 18.0314 5.6001 18.8801C5.6001 19.7287 5.93724 20.5427 6.53736 21.1428C7.13747 21.7429 7.9514 22.0801 8.8001 22.0801V22.0801Z" fill="#09CF83"/>
<path fill-rule="evenodd" clip-rule="evenodd" d="M8.8001 15.68H12.0001V9.28003H8.8001C7.9514 9.28003 7.13747 9.61717 6.53736 10.2173C5.93724 10.8174 5.6001 11.6313 5.6001 12.48C5.6001 13.3287 5.93724 14.1427 6.53736 14.7428C7.13747 15.3429 7.9514 15.68 8.8001 15.68V15.68Z" fill="#A259FF"/>
<path fill-rule="evenodd" clip-rule="evenodd" d="M8.8001 9.28H12.0001V2.88H8.8001C7.9514 2.88 7.13747 3.21715 6.53736 3.81726C5.93724 4.41738 5.6001 5.23131 5.6001 6.08C5.6001 6.9287 5.93724 7.74263 6.53736 8.34275C7.13747 8.94286 7.9514 9.28 8.8001 9.28V9.28Z" fill="#F24E1E"/>
<path fill-rule="evenodd" clip-rule="evenodd" d="M15.2 9.28H12V2.88H15.2C16.0487 2.88 16.8626 3.21715 17.4627 3.81726C18.0629 4.41738 18.4 5.23131 18.4 6.08C18.4 6.9287 18.0629 7.74263 17.4627 8.34275C16.8626 8.94286 16.0487 9.28 15.2 9.28Z" fill="#FF7262"/>
</svg>
