<svg width="24" height="24" viewBox="0 0 24 24" fill="none" xmlns="http://www.w3.org/2000/svg">
<g clip-path="url(#clip0_306_329)">
<path d="M0 12C0 18.6274 5.37258 24 12 24C18.6274 24 24 18.6274 24 12C24 5.37258 18.6274 0 12 0C5.37258 0 0 5.37258 0 12Z" fill="#FFD02F"/>
<path d="M14.9753 5.12H12.9957L14.7531 7.8759L11.0378 5.12H9.05813L10.8156 8.73102L7.09975 5.12H5.12012L6.84861 9.78208L5.12012 18.88H7.09975L10.8156 9.12486L9.05813 18.88H11.0378L14.7531 8.26975L12.9957 18.88H14.9753L18.7201 7.22504L14.9753 5.12Z" fill="#050038"/>
</g>
<defs>
<clipPath id="clip0_306_329">
<rect width="24" height="24" rx="12" fill="white"/>
</clipPath>
</defs>
</svg>
