<svg width="24" height="24" viewBox="0 0 24 24" fill="none" xmlns="http://www.w3.org/2000/svg">
<rect width="24" height="24" rx="12" fill="white"/>
<path fill-rule="evenodd" clip-rule="evenodd" d="M6.99834 6.84748C7.49342 7.24971 7.67915 7.21903 8.60886 7.15699L17.3735 6.63072C17.5594 6.63072 17.4048 6.44527 17.3428 6.41446L15.8872 5.36215C15.6083 5.14561 15.2367 4.89763 14.5245 4.95967L6.03769 5.57866C5.72818 5.60935 5.66636 5.76411 5.78962 5.88815L6.99834 6.84748ZM7.52455 8.89008V18.112C7.52455 18.6076 7.77222 18.793 8.32965 18.7624L17.962 18.205C18.5197 18.1743 18.5818 17.8334 18.5818 17.4308V8.2708C18.5818 7.86884 18.4272 7.65208 18.0858 7.68302L8.01992 8.2708C7.64843 8.30202 7.52455 8.48784 7.52455 8.89008ZM17.0336 9.38476C17.0953 9.66355 17.0336 9.9421 16.7542 9.97344L16.2902 10.0659V16.8741C15.8872 17.0907 15.5156 17.2145 15.206 17.2145C14.7102 17.2145 14.5861 17.0597 14.2147 16.5957L11.179 11.8299V16.441L12.1396 16.6577C12.1396 16.6577 12.1396 17.2145 11.3646 17.2145L9.22795 17.3385C9.16588 17.2145 9.22795 16.9053 9.44468 16.8434L10.0022 16.6888V10.5922L9.22811 10.5301C9.16601 10.2513 9.32064 9.84934 9.75457 9.81815L12.0467 9.66365L15.206 14.4915V10.2206L14.4005 10.1282C14.3386 9.78737 14.5861 9.53989 14.8958 9.5092L17.0336 9.38476ZM5.32513 4.74316L14.1528 4.09306C15.2368 4.00009 15.5157 4.06237 16.1971 4.5573L19.015 6.53787C19.4799 6.87845 19.6349 6.97117 19.6349 7.34244V18.205C19.6349 18.8858 19.3869 19.2884 18.5199 19.35L8.26831 19.9691C7.61743 20.0001 7.30766 19.9073 6.9668 19.4738L4.89167 16.7814C4.51987 16.2858 4.36523 15.915 4.36523 15.4813V5.8259C4.36523 5.26918 4.61331 4.80478 5.32513 4.74316Z" fill="black"/>
</svg>
