<svg width="24" height="25" viewBox="0 0 24 25" fill="none" xmlns="http://www.w3.org/2000/svg">
<g clip-path="url(#clip0_306_324)">
<path d="M5.02452 4.51747C4.81384 4.51747 4.62081 4.60633 4.48986 4.75195C4.37187 4.87525 4.29853 5.04298 4.29321 5.22539V5.27386C4.29555 5.36038 4.31256 5.44159 4.34296 5.51621C4.34423 5.5228 4.347 5.52811 4.34934 5.5347C4.37315 5.59104 4.40312 5.64333 4.44117 5.69202C4.45414 5.71051 4.46881 5.72752 4.48454 5.74304C4.48758 5.74737 4.49107 5.75136 4.49496 5.75494L6.82599 8.52242L7.66763 9.52138L10.1877 12.5121L11.0293 13.5095L13.2855 16.1882L14.1256 17.1856V24.1825C14.6018 24.1838 15.0596 23.9989 15.4014 23.6674C15.4029 23.6674 15.4029 23.6674 15.4029 23.666L15.6505 23.3711L21.7023 16.1882L23.7738 13.7285C23.7842 13.7181 23.7933 13.7062 23.8027 13.6945C23.8471 13.6394 23.8824 13.5776 23.9085 13.5095C23.9415 13.4283 23.9585 13.3393 23.9585 13.2447V5.24898C23.9585 5.05617 23.8837 4.87908 23.7606 4.75068C23.6925 4.6767 23.6098 4.61774 23.5177 4.57758C23.4255 4.53742 23.326 4.51695 23.2255 4.51747H5.02452Z" fill="black"/>
<path d="M5.02452 4.51747C4.81384 4.51747 4.62081 4.60633 4.48986 4.75195C4.37187 4.87525 4.29853 5.04298 4.29321 5.22539V5.27386C4.29555 5.36038 4.31256 5.44159 4.34296 5.51621C4.34423 5.5228 4.347 5.52811 4.34934 5.5347C4.37315 5.59104 4.40312 5.64333 4.44117 5.69202C4.45414 5.71051 4.46881 5.72752 4.48454 5.74304C4.48758 5.74737 4.49107 5.75136 4.49496 5.75494L6.82599 8.52242L7.66763 9.52138L10.1877 12.5121L11.0293 13.5095L13.2855 16.1882L14.1256 17.1856V24.1825C14.6018 24.1838 15.0596 23.9989 15.4014 23.6674C15.4029 23.6674 15.4029 23.6674 15.4029 23.666L15.6505 23.3711L21.7023 16.1882L23.7738 13.7285C23.7842 13.7181 23.7933 13.7062 23.8027 13.6945C23.8471 13.6394 23.8824 13.5776 23.9085 13.5095C23.9415 13.4283 23.9585 13.3393 23.9585 13.2447V5.24898C23.9585 5.05616 23.8837 4.87908 23.7606 4.75068C23.6925 4.6767 23.6098 4.61774 23.5177 4.57758C23.4255 4.53742 23.326 4.51695 23.2255 4.51747H5.02452Z" fill="url(#paint0_linear_306_324)"/>
<path d="M14.1259 21.191V24.1826C13.6498 24.183 13.1923 23.9982 12.8501 23.6672C12.8488 23.6672 12.8488 23.6672 12.8488 23.6662L12.6012 23.3711L6.54942 16.1882L4.48986 13.743C4.48459 13.7399 4.48043 13.7353 4.47795 13.7298L4.44521 13.692C4.44266 13.6892 4.44096 13.6866 4.43884 13.6839C4.39847 13.6308 4.36616 13.5721 4.34296 13.5096C4.31233 13.4332 4.29549 13.352 4.29321 13.2698V13.22C4.29321 13.2043 4.29449 13.1883 4.29725 13.1726C4.3115 13.0076 4.38229 12.8605 4.48986 12.7453C4.55812 12.6717 4.64084 12.613 4.73284 12.5729C4.82485 12.5328 4.92414 12.5121 5.02452 12.5121H6.81175L7.65211 13.5096L9.90832 16.1882L13.6078 20.5788L14.1244 21.1923L14.1259 21.191Z" fill="#FCD1CA"/>
<path d="M14.1259 17.1863V21.1906L14.1246 21.1919L13.6084 20.5786L9.90895 16.1886L7.65233 13.5102L6.81175 12.5121L4.47625 9.74166C4.41864 9.67705 4.37325 9.60249 4.34232 9.52163C4.31213 9.44442 4.29552 9.36258 4.29321 9.27971V9.23039C4.29803 9.05383 4.36808 8.88531 4.48986 8.75738C4.5576 8.68302 4.64018 8.62369 4.73228 8.58323C4.82437 8.54277 4.92393 8.52207 5.02452 8.52247H6.82642L7.66827 9.52163L10.1881 12.5121L11.0287 13.5102L13.2853 16.1884L14.1259 17.1863Z" fill="#FF9D8D"/>
</g>
<defs>
<linearGradient id="paint0_linear_306_324" x1="1992.53" y1="-260.33" x2="288.872" y2="1462.37" gradientUnits="userSpaceOnUse">
<stop stop-color="#FF6660"/>
<stop offset="1" stop-color="#FB4444"/>
</linearGradient>
<clipPath id="clip0_306_324">
<rect width="24" height="24.1838" fill="white"/>
</clipPath>
</defs>
</svg>
