<svg width="24" height="24" viewBox="0 0 24 24" fill="none" xmlns="http://www.w3.org/2000/svg">
<path fill-rule="evenodd" clip-rule="evenodd" d="M18.76 3H5.25143C4.008 3 3 4.00736 3 5.25V18.75C3 19.9926 4.008 21 5.25143 21H18.76C19.999 20.9937 21 19.9882 21 18.75V5.25C21 4.01181 19.999 3.00629 18.76 3ZM6.75 5.25H9.75C10.5784 5.25 11.25 5.92157 11.25 6.75V17.25C11.25 18.0784 10.5784 18.75 9.75 18.75H6.75C5.92157 18.75 5.25 18.0784 5.25 17.25V6.75C5.25 5.92157 5.92157 5.25 6.75 5.25ZM17.25 5.25H14.25C13.4216 5.25 12.75 5.92157 12.75 6.75V12C12.75 12.8284 13.4216 13.5 14.25 13.5H17.25C18.0784 13.5 18.75 12.8284 18.75 12V6.75C18.75 5.92157 18.0784 5.25 17.25 5.25Z" fill="url(#paint0_linear_308_346)"/>
<defs>
<linearGradient id="paint0_linear_308_346" x1="12.0057" y1="21" x2="12.0057" y2="3" gradientUnits="userSpaceOnUse">
<stop stop-color="#0052CC"/>
<stop offset="0.51698" stop-color="#217EF8"/>
<stop offset="1" stop-color="#2684FF"/>
</linearGradient>
</defs>
</svg>
