<svg width="24" height="24" viewBox="0 0 24 24" fill="none" xmlns="http://www.w3.org/2000/svg">
<path d="M15.7514 2.33759C15.7514 1.67837 15.0133 1.67837 14.6853 1.76077C15.1446 1.3982 15.6831 1.4861 15.8745 1.59597L20.3095 3.7706C20.7321 3.97781 21.0001 4.40895 21.0001 4.88143V19.1873C21.0001 19.6661 20.7249 20.1019 20.2938 20.3057L16.1205 22.279C15.8335 22.4026 15.2102 22.7075 14.6853 22.279C15.3414 22.4026 15.6968 21.9357 15.7514 21.6198V2.33759Z" fill="url(#paint0_linear_306_333)"/>
<path d="M14.7384 1.74881C15.0866 1.68 15.7513 1.71191 15.7513 2.33752V7.26178L2.30519 17.4339C2.07016 17.6117 1.7394 17.5822 1.53922 17.3655L0.153399 15.866C-0.0637019 15.6311 -0.0485118 15.2634 0.187218 15.0473L14.6852 1.76069L14.7384 1.74881Z" fill="url(#paint1_linear_306_333)"/>
<path d="M15.7513 16.778L2.30519 6.60589C2.07016 6.42809 1.7394 6.45759 1.53922 6.6742L0.153399 8.17375C-0.0637018 8.40867 -0.0485118 8.77639 0.187218 8.99242L14.6852 22.2791V22.2791C15.3413 22.4027 15.6967 21.9357 15.7513 21.6198V16.778Z" fill="url(#paint2_linear_306_333)"/>
<defs>
<linearGradient id="paint0_linear_306_333" x1="17.8427" y1="1.5" x2="17.8427" y2="22.5" gradientUnits="userSpaceOnUse">
<stop stop-color="#32B5F1"/>
<stop offset="1" stop-color="#2B9FED"/>
</linearGradient>
<linearGradient id="paint1_linear_306_333" x1="15.7513" y1="4.15036" x2="0.766278" y2="16.7287" gradientUnits="userSpaceOnUse">
<stop stop-color="#0F6FB3"/>
<stop offset="0.270551" stop-color="#1279B7"/>
<stop offset="0.421376" stop-color="#1176B5"/>
<stop offset="0.618197" stop-color="#0E69AC"/>
<stop offset="0.855344" stop-color="#0F70AF"/>
<stop offset="1" stop-color="#0F6DAD"/>
</linearGradient>
<linearGradient id="paint2_linear_306_333" x1="0.866412" y1="7.48779" x2="15.8093" y2="19.8605" gradientUnits="userSpaceOnUse">
<stop stop-color="#1791D2"/>
<stop offset="1" stop-color="#1173C5"/>
</linearGradient>
</defs>
</svg>
